<svg width="75" height="15" viewBox="0 0 75 15" fill="none" xmlns="http://www.w3.org/2000/svg">
<path d="M4.864 2.696H3.68V1.448H4.864V2.696ZM2.912 2.696H1.728V1.448H2.912V2.696ZM8.032 11H6.416C5.264 11 4.704 10.408 4.72 9.24H2.368C1.152 9.24 0.544 8.472 0.544 6.952C0.544 5.944 0.8 5.176 1.328 4.648C1.744 4.216 2.256 3.992 2.848 3.992C3.6 3.992 4.288 4.392 4.608 4.904H4.64V4.12H5.744V9.176C5.744 9.704 5.968 9.976 6.416 9.976H8.032V11ZM4.656 8.248L4.64 5.88C4.256 5.224 3.76 4.888 3.136 4.888C2.736 4.888 2.4 5.064 2.144 5.416C1.84 5.784 1.696 6.328 1.696 7.016C1.696 7.384 1.744 7.64 1.824 7.816C1.952 8.104 2.208 8.248 2.592 8.248H4.656ZM14.5786 11H13.1546C12.6746 11 12.2746 10.792 11.9386 10.392C11.7466 10.168 11.6186 9.944 11.5386 9.704C11.2346 10.488 10.4186 10.952 9.53863 11H7.44262V9.976H9.21863C9.52263 9.976 9.79463 9.896 10.0506 9.736C10.3866 9.512 10.5466 9.224 10.5466 8.856C10.5786 9.112 10.5786 7.88 10.5306 5.16H11.6346C11.6346 6.184 11.6506 7.192 11.6666 8.2C11.6826 8.76 11.8426 9.208 12.1626 9.544C12.4346 9.832 12.7386 9.976 13.0426 9.976H14.5786V10.248V10.744V11ZM12.7866 13.368H11.6026V12.136H12.7866V13.368ZM10.8346 13.368H9.63463V12.136H10.8346V13.368ZM18.1834 8.92C18.1834 10.2 17.4154 11 16.0074 11H14.2314V9.976H15.9914C16.6154 9.976 17.0794 9.608 17.0794 8.888C17.0794 9.032 17.0634 7.8 17.0314 5.16H18.1354C18.1674 7.688 18.1834 8.936 18.1834 8.92ZM17.2394 13.352H16.0554V12.12H17.2394V13.352ZM25.4563 9.976C25.4403 10.152 25.4403 10.504 25.4403 11H24.0163C23.3923 11 22.8963 10.664 22.5283 10.008C22.4483 11.272 22.0163 12.296 21.2643 13.112C20.5123 13.928 19.5523 14.376 18.3842 14.472C18.2722 14.28 18.1122 13.944 17.9042 13.48C18.9443 13.48 19.7923 13.112 20.4643 12.376C21.1043 11.656 21.4243 10.76 21.4243 9.688L21.4083 5.176H22.5123L22.5283 8.36C22.5443 8.84 22.7043 9.24 23.0243 9.56C23.3123 9.832 23.6003 9.976 23.9043 9.976H25.4563ZM35.1868 11H32.0188C31.3788 11 30.8348 10.744 30.3868 10.232C29.4427 10.744 28.5148 11 27.6348 11H24.9947V9.976H27.6188C28.3068 9.976 29.0268 9.8 29.7628 9.448C29.1228 8.664 28.5788 8.088 28.1308 7.736C27.4428 7.208 26.7228 6.904 25.9548 6.856V5.544C26.8988 4.648 28.2428 4.2 30.0028 4.216C31.1708 4.232 32.2268 4.488 33.1868 5.016C33.7788 5.32 34.2108 5.656 34.4988 5.992C33.7148 7.496 32.6108 8.744 31.1708 9.752C31.3468 9.88 31.5548 9.96 31.8268 9.976H32.2908H35.1868V11ZM33.2028 6.216C32.9148 6.04 32.6428 5.864 32.3708 5.688C31.6828 5.368 30.9148 5.208 30.0668 5.208C29.3307 5.208 28.7068 5.288 28.1788 5.432C27.8108 5.544 27.3628 5.736 26.8668 6.008C28.1148 6.344 29.3468 7.336 30.5468 8.984C31.6188 8.264 32.5148 7.336 33.2028 6.216ZM38.0731 8.92C38.0731 10.2 37.3051 11 35.8971 11H34.8571V9.976H35.8811C36.5051 9.976 36.9691 9.608 36.9691 8.888C36.9691 7.88 36.9531 6.504 36.9371 4.776C36.9211 2.776 36.9051 1.4 36.9051 0.648H38.0091C38.0091 1.384 38.0251 2.76 38.0411 4.792C38.0571 6.52 38.0731 7.896 38.0731 8.92ZM41.3309 11H40.2269L40.1469 0.648H41.2509L41.3309 11ZM50.1921 2.696H49.0081V1.448H50.1921V2.696ZM48.2401 2.696H47.0561V1.448H48.2401V2.696ZM53.3601 11H51.7441C50.5921 11 50.0321 10.408 50.0481 9.24H47.6961C46.4801 9.24 45.8721 8.472 45.8721 6.952C45.8721 5.944 46.1281 5.176 46.6561 4.648C47.0721 4.216 47.5841 3.992 48.1761 3.992C48.9281 3.992 49.6161 4.392 49.9361 4.904H49.9681V4.12H51.0721V9.176C51.0721 9.704 51.2961 9.976 51.7441 9.976H53.3601V11ZM49.9841 8.248L49.9681 5.88C49.5841 5.224 49.0881 4.888 48.4641 4.888C48.0641 4.888 47.7281 5.064 47.4721 5.416C47.1681 5.784 47.0241 6.328 47.0241 7.016C47.0241 7.384 47.0721 7.64 47.1521 7.816C47.2801 8.104 47.5361 8.248 47.9201 8.248H49.9841ZM58.8988 3.128H57.7148V1.88H58.8988V3.128ZM63.1868 11H60.0188C59.3788 11 58.8348 10.744 58.3868 10.232C57.4427 10.744 56.5148 11 55.6348 11H52.9947V9.976H55.6028C56.3068 9.976 57.0268 9.8 57.7628 9.448C57.1228 8.664 56.5788 8.088 56.1308 7.736C55.4428 7.208 54.7228 6.904 53.9548 6.856V5.544C54.8988 4.648 56.2428 4.2 58.0028 4.216C59.1708 4.232 60.2268 4.488 61.1868 5.016C61.7788 5.32 62.2108 5.656 62.4988 5.992C61.7148 7.496 60.6108 8.744 59.1708 9.752C59.3468 9.88 59.5548 9.96 59.8268 9.976H60.2748H63.1868V11ZM61.2028 6.216C60.9148 6.04 60.6428 5.864 60.3708 5.688C59.6828 5.368 58.9148 5.208 58.0668 5.208C57.3307 5.208 56.7068 5.288 56.1788 5.432C55.8108 5.544 55.3628 5.736 54.8668 6.008C56.1148 6.344 57.3468 7.336 58.5468 8.984C59.6188 8.264 60.5148 7.336 61.2028 6.216ZM68.8411 11H67.4171C66.9371 11 66.5371 10.792 66.2011 10.392C66.0091 10.168 65.8811 9.944 65.8011 9.704C65.4971 10.488 64.6811 10.952 63.8011 11H62.7451V9.976H63.4971C63.7851 9.976 64.0571 9.896 64.3291 9.736C64.6491 9.512 64.8091 9.224 64.8091 8.856C64.8091 6.632 64.7771 3.88 64.7291 0.615999H65.8331C65.8491 2.776 65.8651 5.368 65.9131 8.392C65.9291 8.824 66.1051 9.208 66.4251 9.544C66.7131 9.832 67.0011 9.976 67.3051 9.976H68.8411V11ZM71.7138 8.92C71.7138 10.2 70.9457 11 69.5378 11H68.4977V9.976H69.5218C70.1458 9.976 70.6098 9.608 70.6098 8.888C70.6098 7.88 70.5938 6.504 70.5778 4.776C70.5618 2.776 70.5458 1.4 70.5458 0.648H71.6498C71.6498 1.384 71.6658 2.76 71.6818 4.792C71.6978 6.52 71.7138 7.896 71.7138 8.92ZM74.9715 11H73.8675L73.7875 0.648H74.8915L74.9715 11Z" fill="#293132"/>
</svg>
