<svg width="136" height="40" viewBox="0 0 136 40" fill="none" xmlns="http://www.w3.org/2000/svg">
<g clip-path="url(#clip0)">
<path d="M0.5 5.33333C0.5 2.66479 2.66735 0.5 5.34278 0.5H129.83C132.505 0.5 134.672 2.66479 134.672 5.33333V34.6667C134.672 37.3352 132.505 39.5 129.83 39.5H5.34278C2.66735 39.5 0.5 37.3352 0.5 34.6667V5.33333Z" stroke="#F2F5FF"/>
<path fill-rule="evenodd" clip-rule="evenodd" d="M0 34.6667V5.33333C0 2.38782 2.39204 0 5.34278 0H129.83C132.78 0 135.172 2.38781 135.172 5.33333V34.6667C135.172 37.6122 132.78 40 129.83 40H5.34278C2.39205 40 0 37.6122 0 34.6667ZM0.801417 34.6667V5.33333C0.801417 2.82964 2.83466 0.8 5.34278 0.8H129.83C132.338 0.8 134.371 2.82964 134.371 5.33333V34.6667C134.371 37.1704 132.338 39.2 129.83 39.2H5.34278C2.83466 39.2 0.801417 37.1704 0.801417 34.6667Z" fill="white" fill-opacity="0.3"/>
<path d="M30.5462 20.8144C30.5324 18.47 31.5965 16.7031 33.7453 15.4003C32.5435 13.6816 30.7253 12.7363 28.3285 12.5541C26.0592 12.3753 23.5764 13.8741 22.6673 13.8741C21.7065 13.8741 19.5095 12.616 17.7808 12.616C14.2133 12.671 10.4219 15.4553 10.4219 21.1203C10.4219 22.7944 10.7284 24.5235 11.3413 26.3041C12.1609 28.6485 15.1155 34.3925 18.1975 34.2997C19.8091 34.2619 20.9489 33.1585 23.0461 33.1585C25.0812 33.1585 26.135 34.2997 27.9325 34.2997C31.0421 34.255 33.7143 29.0335 34.4926 26.6822C30.3224 24.7194 30.5462 20.9347 30.5462 20.8144ZM26.927 10.33C28.6729 8.26064 28.5145 6.37689 28.4628 5.69971C26.9201 5.78908 25.1363 6.74814 24.1205 7.92721C23.0013 9.19221 22.3436 10.7563 22.4848 12.5197C24.1515 12.6469 25.6735 11.791 26.927 10.33Z" fill="white"/>
<path d="M49.3553 28.946H47.5867L46.6178 25.893H43.2503L42.3274 28.946H40.6055L43.9419 18.5521H46.0026L49.3553 28.946ZM46.3258 24.6121L45.4496 21.898C45.357 21.6207 45.1833 20.9678 44.9271 19.94H44.8959C44.7939 20.382 44.6295 21.035 44.4037 21.898L43.5431 24.6121H46.3258Z" fill="white"/>
<path d="M57.9354 25.1065C57.9354 26.3812 57.592 27.3887 56.905 28.1283C56.2898 28.7867 55.5258 29.1156 54.6138 29.1156C53.6294 29.1156 52.9222 28.761 52.4916 28.0518H52.4604V31.9999H50.8V23.9186C50.8 23.1172 50.779 22.2948 50.7385 21.4513H52.1987L52.2914 22.6393H52.3226C52.8763 21.7442 53.7166 21.2974 54.8443 21.2974C55.7259 21.2974 56.4619 21.6466 57.0507 22.3456C57.641 23.0454 57.9354 23.9654 57.9354 25.1065ZM56.2438 25.1675C56.2438 24.438 56.0803 23.8366 55.7516 23.3633C55.3926 22.8697 54.9105 22.6229 54.3062 22.6229C53.8965 22.6229 53.5243 22.7603 53.1917 23.0313C52.8584 23.3047 52.6403 23.6616 52.5383 24.1037C52.4869 24.3099 52.4612 24.4786 52.4612 24.6114V25.861C52.4612 26.4062 52.6279 26.8662 52.9612 27.2419C53.2945 27.6175 53.7275 27.805 54.2602 27.805C54.8856 27.805 55.3724 27.5629 55.7205 27.0802C56.0694 26.5967 56.2438 25.9594 56.2438 25.1675Z" fill="white"/>
<path d="M66.5314 25.1065C66.5314 26.3812 66.1879 27.3887 65.5002 28.1283C64.8857 28.7867 64.1217 29.1156 63.2098 29.1156C62.2253 29.1156 61.5182 28.761 61.0883 28.0518H61.0571V31.9999H59.3967V23.9186C59.3967 23.1172 59.3757 22.2948 59.3352 21.4513H60.7955L60.8881 22.6393H60.9193C61.4722 21.7442 62.3126 21.2974 63.4411 21.2974C64.3219 21.2974 65.0579 21.6466 65.6482 22.3456C66.2362 23.0454 66.5314 23.9654 66.5314 25.1065ZM64.8398 25.1675C64.8398 24.438 64.6755 23.8366 64.3468 23.3633C63.9878 22.8697 63.5073 22.6229 62.9021 22.6229C62.4917 22.6229 62.1202 22.7603 61.7869 23.0313C61.4536 23.3047 61.2363 23.6616 61.1342 24.1037C61.0836 24.3099 61.0571 24.4786 61.0571 24.6114V25.861C61.0571 26.4062 61.2238 26.8662 61.5556 27.2419C61.8889 27.6168 62.3219 27.805 62.8562 27.805C63.4816 27.805 63.9683 27.5629 64.3164 27.0802C64.6653 26.5967 64.8398 25.9594 64.8398 25.1675Z" fill="white"/>
<path d="M76.1419 26.0313C76.1419 26.9155 75.8359 27.6348 75.2214 28.1901C74.5462 28.797 73.6062 29.1 72.3982 29.1C71.283 29.1 70.3889 28.8845 69.7121 28.4525L70.0969 27.0647C70.8258 27.5067 71.6257 27.7285 72.4971 27.7285C73.1225 27.7285 73.6093 27.5864 73.959 27.3036C74.3071 27.0209 74.4808 26.6413 74.4808 26.168C74.4808 25.7463 74.3374 25.3909 74.0501 25.1027C73.7642 24.8145 73.2868 24.5466 72.6202 24.299C70.8056 23.6203 69.899 22.6261 69.899 21.3186C69.899 20.4642 70.2168 19.7636 70.8531 19.2184C71.487 18.6725 72.3328 18.3999 73.3904 18.3999C74.3336 18.3999 75.117 18.5647 75.7424 18.8935L75.3273 20.2509C74.7432 19.9323 74.0828 19.773 73.3437 19.773C72.7596 19.773 72.3032 19.9174 71.9761 20.2049C71.6996 20.4618 71.561 20.775 71.561 21.146C71.561 21.5568 71.7191 21.8966 72.0369 22.1637C72.3133 22.4105 72.8157 22.6776 73.5446 22.9658C74.4364 23.3259 75.0913 23.7468 75.5127 24.2295C75.9324 24.7106 76.1419 25.3128 76.1419 26.0313Z" fill="white"/>
<path d="M81.6315 22.7011H79.8013V26.3399C79.8013 27.2655 80.1237 27.7278 80.7701 27.7278C81.0668 27.7278 81.3129 27.702 81.5076 27.6505L81.5536 28.915C81.2265 29.0376 80.7958 29.0993 80.2623 29.0993C79.6066 29.0993 79.0941 28.8986 78.7242 28.4979C78.3558 28.0965 78.1705 27.4232 78.1705 26.4774V22.6996H77.0801V21.4499H78.1705V20.0776L79.8013 19.584V21.4499H81.6315V22.7011Z" fill="white"/>
<path d="M89.8892 25.137C89.8892 26.289 89.5606 27.2348 88.9048 27.9745C88.2171 28.736 87.3044 29.1156 86.1665 29.1156C85.07 29.1156 84.1969 28.7508 83.5459 28.0213C82.8948 27.2919 82.5692 26.371 82.5692 25.2612C82.5692 24.0998 82.9041 23.1485 83.5762 22.4089C84.2468 21.6684 85.1518 21.2982 86.2896 21.2982C87.3861 21.2982 88.2685 21.663 88.9344 22.3932C89.5715 23.1016 89.8892 24.0162 89.8892 25.137ZM88.1665 25.1909C88.1665 24.4997 88.0193 23.9069 87.721 23.4125C87.3729 22.8142 86.8752 22.5159 86.2304 22.5159C85.563 22.5159 85.056 22.815 84.7078 23.4125C84.4096 23.9077 84.2624 24.5098 84.2624 25.2221C84.2624 25.9133 84.4096 26.5061 84.7078 26.9998C85.0669 27.598 85.5684 27.8964 86.2156 27.8964C86.8495 27.8964 87.3472 27.5918 87.7062 26.9841C88.0123 26.4804 88.1665 25.8813 88.1665 25.1909Z" fill="white"/>
<path d="M95.2862 22.9157C95.1219 22.8853 94.9467 22.8697 94.7629 22.8697C94.1787 22.8697 93.727 23.0907 93.4093 23.5335C93.1328 23.9241 92.9942 24.4177 92.9942 25.0136V28.9461H91.3345L91.3501 23.8116C91.3501 22.9478 91.3291 22.1613 91.2878 21.4521H92.7341L92.7948 22.8861H92.8408C93.016 22.3932 93.2925 21.9965 93.671 21.6989C94.0409 21.431 94.4404 21.2974 94.8711 21.2974C95.0245 21.2974 95.1632 21.3084 95.2862 21.3279V22.9157Z" fill="white"/>
<path d="M102.712 24.8442C102.712 25.1425 102.692 25.394 102.651 25.5994H97.6697C97.6892 26.3398 97.9299 26.9061 98.3925 27.2966C98.8122 27.6457 99.3551 27.8207 100.022 27.8207C100.759 27.8207 101.432 27.7027 102.037 27.4661L102.297 28.622C101.59 28.9313 100.755 29.0851 99.792 29.0851C98.6331 29.0851 97.7235 28.7431 97.0615 28.0597C96.4011 27.3763 96.0701 26.4585 96.0701 25.3073C96.0701 24.1772 96.3777 23.236 96.9937 22.4854C97.6386 21.6841 98.5101 21.2834 99.6066 21.2834C100.684 21.2834 101.499 21.6841 102.053 22.4854C102.491 23.122 102.712 23.9093 102.712 24.8442ZM101.128 24.4122C101.139 23.9186 101.031 23.4922 100.806 23.1321C100.519 22.669 100.077 22.4378 99.4828 22.4378C98.94 22.4378 98.4984 22.6635 98.1612 23.1165C97.8847 23.4766 97.7204 23.9085 97.6697 24.4115H101.128V24.4122Z" fill="white"/>
<path d="M45.9872 11.5626C45.9872 12.6861 45.6512 13.5318 44.9802 14.0998C44.3586 14.6238 43.4753 14.8863 42.3312 14.8863C41.7639 14.8863 41.2785 14.8615 40.8721 14.8119V8.67316C41.4022 8.58725 41.9733 8.54334 42.5901 8.54334C43.68 8.54334 44.5014 8.78102 45.0554 9.25639C45.676 9.7938 45.9872 10.5622 45.9872 11.5626ZM44.9354 11.5903C44.9354 10.8619 44.7432 10.3035 44.3586 9.91407C43.9741 9.52557 43.4125 9.33084 42.6729 9.33084C42.3588 9.33084 42.0914 9.35184 41.8696 9.39575V14.0626C41.9924 14.0816 42.217 14.0902 42.5435 14.0902C43.3069 14.0902 43.896 13.8774 44.311 13.4516C44.726 13.0259 44.9354 12.4055 44.9354 11.5903Z" fill="white"/>
<path d="M51.5641 12.544C51.5641 13.2361 51.367 13.8031 50.973 14.2479C50.5599 14.7051 50.0126 14.9333 49.3292 14.9333C48.6705 14.9333 48.146 14.7147 47.7548 14.2756C47.3646 13.8374 47.1695 13.2848 47.1695 12.6185C47.1695 11.9217 47.3703 11.3499 47.7739 10.906C48.1774 10.4622 48.72 10.2397 49.4034 10.2397C50.0621 10.2397 50.5913 10.4583 50.992 10.8965C51.3727 11.3222 51.5641 11.872 51.5641 12.544ZM50.5294 12.5765C50.5294 12.1613 50.4399 11.8052 50.262 11.5083C50.0526 11.1494 49.7546 10.97 49.3672 10.97C48.9665 10.97 48.6619 11.1494 48.4525 11.5083C48.2736 11.8052 48.1851 12.167 48.1851 12.5946C48.1851 13.0098 48.2745 13.3659 48.4525 13.6628C48.6686 14.0217 48.9694 14.2011 49.3577 14.2011C49.7384 14.2011 50.0373 14.0188 50.2524 13.6532C50.4371 13.3506 50.5294 12.9917 50.5294 12.5765Z" fill="white"/>
<path d="M59.0419 10.3313L57.638 14.8311H56.7242L56.1426 12.8771C55.9951 12.3893 55.8752 11.9044 55.7819 11.4233H55.7638C55.6772 11.9178 55.5573 12.4017 55.4031 12.8771L54.7853 14.8311H53.8611L52.5409 10.3313H53.566L54.0734 12.4705C54.1961 12.9764 54.297 13.4584 54.3779 13.9147H54.396C54.4703 13.5386 54.5931 13.0594 54.7663 12.48L55.4031 10.3323H56.2159L56.826 12.4342C56.9736 12.9468 57.0935 13.4403 57.1858 13.9157H57.2134C57.281 13.4527 57.3829 12.9592 57.518 12.4342L58.0625 10.3323H59.0419V10.3313Z" fill="white"/>
<path d="M64.2129 14.8311H63.2153V12.2538C63.2153 11.4596 62.9146 11.0625 62.3111 11.0625C62.0151 11.0625 61.7762 11.1714 61.5906 11.3899C61.4069 11.6085 61.3136 11.8663 61.3136 12.1612V14.8302H60.3161V11.6171C60.3161 11.2219 60.3037 10.7934 60.2799 10.3294H61.1565L61.2032 11.0329H61.2308C61.3469 10.8144 61.5201 10.6339 61.7476 10.4898C62.0179 10.3218 62.3206 10.2368 62.6519 10.2368C63.0707 10.2368 63.419 10.3724 63.696 10.6444C64.0406 10.9776 64.2129 11.4749 64.2129 12.1355V14.8311Z" fill="white"/>
<path d="M66.9635 14.8311H65.9669V8.2666H66.9635V14.8311Z" fill="white"/>
<path d="M72.8363 12.544C72.8363 13.2361 72.6393 13.8031 72.2452 14.2479C71.8321 14.7051 71.2839 14.9333 70.6014 14.9333C69.9418 14.9333 69.4173 14.7147 69.0271 14.2756C68.6368 13.8374 68.4417 13.2848 68.4417 12.6185C68.4417 11.9217 68.6425 11.3499 69.0461 10.906C69.4497 10.4622 69.9922 10.2397 70.6747 10.2397C71.3343 10.2397 71.8626 10.4583 72.2642 10.8965C72.645 11.3222 72.8363 11.872 72.8363 12.544ZM71.8007 12.5765C71.8007 12.1613 71.7112 11.8052 71.5332 11.5083C71.3248 11.1494 71.0259 10.97 70.6395 10.97C70.2378 10.97 69.9332 11.1494 69.7247 11.5083C69.5458 11.8052 69.4573 12.167 69.4573 12.5946C69.4573 13.0098 69.5468 13.3659 69.7247 13.6628C69.9408 14.0217 70.2416 14.2011 70.6299 14.2011C71.0107 14.2011 71.3086 14.0188 71.5237 13.6532C71.7093 13.3506 71.8007 12.9917 71.8007 12.5765Z" fill="white"/>
<path d="M77.664 14.8311H76.7684L76.6941 14.3128H76.6665C76.36 14.7261 75.9231 14.9333 75.3558 14.9333C74.9323 14.9333 74.5896 14.7968 74.3317 14.5257C74.0975 14.2794 73.9804 13.973 73.9804 13.6093C73.9804 13.0595 74.2089 12.6404 74.6686 12.3503C75.1274 12.0601 75.7727 11.9178 76.6037 11.9245V11.8405C76.6037 11.2477 76.2934 10.9518 75.6719 10.9518C75.2293 10.9518 74.839 11.0635 74.5021 11.285L74.2993 10.6282C74.7162 10.3696 75.2312 10.2397 75.8384 10.2397C77.0111 10.2397 77.5993 10.8602 77.5993 12.1011V13.7582C77.5993 14.2078 77.6212 14.5658 77.664 14.8311ZM76.6284 13.2848V12.5908C75.5281 12.5717 74.978 12.8743 74.978 13.4976C74.978 13.7324 75.0408 13.9081 75.1693 14.0255C75.2978 14.1429 75.4615 14.2011 75.6566 14.2011C75.8755 14.2011 76.0802 14.1314 76.2667 13.993C76.4543 13.8537 76.5694 13.6771 76.6123 13.4604C76.6227 13.4117 76.6284 13.3525 76.6284 13.2848Z" fill="white"/>
<path d="M83.3321 14.8311H82.4469L82.4002 14.1085H82.3726C82.0899 14.6583 81.6083 14.9332 80.9316 14.9332C80.3909 14.9332 79.9407 14.7203 79.5838 14.2946C79.2268 13.8689 79.0488 13.3162 79.0488 12.6375C79.0488 11.9092 79.2421 11.3193 79.6304 10.8687C80.0064 10.4487 80.4671 10.2387 81.0153 10.2387C81.6178 10.2387 82.0395 10.442 82.2793 10.8496H82.2984V8.2666H83.2968V13.6188C83.2968 14.0569 83.3083 14.4607 83.3321 14.8311ZM82.2984 12.9334V12.1831C82.2984 12.0533 82.2889 11.9483 82.2708 11.8681C82.2146 11.6276 82.0937 11.4252 81.91 11.262C81.7244 11.0988 81.5007 11.0167 81.2428 11.0167C80.8706 11.0167 80.5794 11.1646 80.3652 11.4615C80.153 11.7584 80.0454 12.1373 80.0454 12.6003C80.0454 13.0451 80.1472 13.4059 80.3519 13.6837C80.568 13.9796 80.8592 14.1275 81.2238 14.1275C81.5512 14.1275 81.8129 14.0044 82.0119 13.7572C82.2042 13.529 82.2984 13.2541 82.2984 12.9334Z" fill="white"/>
<path d="M91.8638 12.544C91.8638 13.2361 91.6667 13.8031 91.2727 14.2479C90.8596 14.7051 90.3132 14.9333 89.6289 14.9333C88.9711 14.9333 88.4467 14.7147 88.0545 14.2756C87.6643 13.8374 87.4692 13.2848 87.4692 12.6185C87.4692 11.9217 87.67 11.3499 88.0736 10.906C88.4771 10.4622 89.0197 10.2397 89.704 10.2397C90.3618 10.2397 90.8919 10.4583 91.2917 10.8965C91.6724 11.3222 91.8638 11.872 91.8638 12.544ZM90.8301 12.5765C90.8301 12.1613 90.7406 11.8052 90.5626 11.5083C90.3522 11.1494 90.0553 10.97 89.6669 10.97C89.2672 10.97 88.9626 11.1494 88.7522 11.5083C88.5733 11.8052 88.4848 12.167 88.4848 12.5946C88.4848 13.0098 88.5742 13.3659 88.7522 13.6628C88.9683 14.0217 89.2691 14.2011 89.6574 14.2011C90.0381 14.2011 90.338 14.0188 90.5531 13.6532C90.7368 13.3506 90.8301 12.9917 90.8301 12.5765Z" fill="white"/>
<path d="M97.227 14.8311H96.2305V12.2538C96.2305 11.4596 95.9297 11.0625 95.3253 11.0625C95.0293 11.0625 94.7903 11.1714 94.6057 11.3899C94.421 11.6085 94.3287 11.8663 94.3287 12.1612V14.8302H93.3302V11.6171C93.3302 11.2219 93.3188 10.7934 93.295 10.3294H94.1707L94.2173 11.0329H94.2449C94.362 10.8144 94.5353 10.6339 94.7618 10.4898C95.0331 10.3218 95.3348 10.2368 95.667 10.2368C96.0848 10.2368 96.4332 10.3724 96.7102 10.6444C97.0557 10.9776 97.227 11.4749 97.227 12.1355V14.8311Z" fill="white"/>
<path d="M103.94 11.0807H102.842V13.2666C102.842 13.8222 103.037 14.0999 103.423 14.0999C103.602 14.0999 103.751 14.0847 103.868 14.0532L103.893 14.812C103.696 14.8865 103.437 14.9237 103.119 14.9237C102.725 14.9237 102.418 14.8034 102.196 14.5629C101.974 14.3223 101.863 13.9176 101.863 13.3497V11.0807H101.207V10.3314H101.863V9.50663L102.841 9.21072V10.3304H103.939V11.0807H103.94Z" fill="white"/>
<path d="M109.221 14.8311H108.223V12.2729C108.223 11.4663 107.922 11.0625 107.319 11.0625C106.857 11.0625 106.541 11.2963 106.368 11.7641C106.338 11.8624 106.321 11.9827 106.321 12.1239V14.8301H105.324V8.2666H106.321V10.9785H106.34C106.654 10.485 107.104 10.2387 107.688 10.2387C108.101 10.2387 108.443 10.3743 108.714 10.6463C109.052 10.9852 109.221 11.4892 109.221 12.1554V14.8311Z" fill="white"/>
<path d="M114.669 12.3683C114.669 12.5478 114.656 12.6986 114.632 12.8217H111.64C111.654 13.2665 111.796 13.6054 112.073 13.8402C112.326 14.0502 112.653 14.1552 113.053 14.1552C113.495 14.1552 113.899 14.0846 114.262 13.9424L114.419 14.6373C113.993 14.8225 113.492 14.9151 112.913 14.9151C112.218 14.9151 111.671 14.7098 111.275 14.2994C110.877 13.8889 110.68 13.3381 110.68 12.647C110.68 11.9684 110.863 11.4033 111.234 10.9527C111.62 10.4716 112.143 10.2311 112.802 10.2311C113.448 10.2311 113.938 10.4716 114.269 10.9527C114.537 11.3345 114.669 11.807 114.669 12.3683ZM113.717 12.1096C113.725 11.8128 113.659 11.5569 113.524 11.3412C113.351 11.0634 113.087 10.9241 112.73 10.9241C112.405 10.9241 112.139 11.0596 111.936 11.3317C111.771 11.5484 111.673 11.807 111.64 12.1096H113.717Z" fill="white"/>
</g>
<defs>
<clipPath id="clip0">
<rect width="135.172" height="40" fill="white"/>
</clipPath>
</defs>
</svg>
