<svg width="119" height="36" viewBox="0 0 119 36" fill="none" xmlns="http://www.w3.org/2000/svg">
<path d="M0 4.8C0 2.14903 2.10585 0 4.70356 0H114.296C116.894 0 119 2.14903 119 4.8V31.2C119 33.851 116.894 36 114.296 36H4.70356C2.10585 36 0 33.851 0 31.2V4.8Z" fill="black"/>
<path fill-rule="evenodd" clip-rule="evenodd" d="M0 31.2V4.8C0 2.14903 2.10585 0 4.70356 0H114.296C116.894 0 119 2.14903 119 4.8V31.2C119 33.851 116.894 36 114.296 36H4.70356C2.10585 36 0 33.851 0 31.2ZM0.705534 31.2V4.8C0.705534 2.54668 2.49551 0.72 4.70356 0.72H114.296C116.504 0.72 118.294 2.54668 118.294 4.8V31.2C118.294 33.4533 116.504 35.28 114.296 35.28H4.70356C2.49551 35.28 0.705534 33.4533 0.705534 31.2Z" fill="white" fill-opacity="0.3"/>
<path d="M26.8914 18.7331C26.8793 16.6232 27.816 15.033 29.7078 13.8604C28.6497 12.3136 27.0491 11.4628 24.9391 11.2988C22.9413 11.1379 20.7555 12.4868 19.9551 12.4868C19.1093 12.4868 17.1752 11.3545 15.6533 11.3545C12.5126 11.404 9.1748 13.9099 9.1748 19.0084C9.1748 20.5151 9.44462 22.0713 9.98424 23.6738C10.7058 25.7838 13.3069 30.9534 16.0201 30.8699C17.4389 30.8358 18.4424 29.8428 20.2886 29.8428C22.0803 29.8428 23.0079 30.8699 24.5904 30.8699C27.328 30.8297 29.6805 26.1303 30.3656 24.0141C26.6944 22.2476 26.8914 18.8414 26.8914 18.7331ZM23.7052 9.29716C25.2422 7.43473 25.1028 5.73935 25.0573 5.12988C23.6992 5.21032 22.1288 6.07348 21.2345 7.13463C20.2492 8.27313 19.6702 9.68079 19.7945 11.2679C21.2618 11.3824 22.6017 10.612 23.7052 9.29716Z" fill="white"/>
<path d="M43.4501 26.0511H41.893L41.0401 23.3033H38.0755L37.263 26.0511H35.7471L38.6843 16.6965H40.4985L43.4501 26.0511ZM40.783 22.1505L40.0117 19.7079C39.9301 19.4583 39.7772 18.8707 39.5516 17.9456H39.5242C39.4344 18.3435 39.2897 18.9311 39.0909 19.7079L38.3332 22.1505H40.783Z" fill="white"/>
<path d="M51.0036 22.5955C51.0036 23.7427 50.7012 24.6495 50.0965 25.3152C49.5549 25.9077 48.8823 26.2037 48.0794 26.2037C47.2128 26.2037 46.5902 25.8845 46.2111 25.2463H46.1837V28.7996H44.7219V21.5264C44.7219 20.8052 44.7034 20.065 44.6677 19.3058H45.9533L46.0349 20.375H46.0623C46.5498 19.5694 47.2896 19.1674 48.2824 19.1674C49.0585 19.1674 49.7064 19.4816 50.2247 20.1107C50.7444 20.7405 51.0036 21.5686 51.0036 22.5955ZM49.5144 22.6504C49.5144 21.9938 49.3704 21.4526 49.0811 21.0266C48.765 20.5824 48.3406 20.3602 47.8086 20.3602C47.4479 20.3602 47.1202 20.4839 46.8275 20.7279C46.534 20.9739 46.342 21.2951 46.2522 21.693C46.207 21.8786 46.1843 22.0304 46.1843 22.1499V23.2746C46.1843 23.7652 46.3311 24.1792 46.6245 24.5173C46.918 24.8554 47.2992 25.0241 47.7681 25.0241C48.3187 25.0241 48.7472 24.8062 49.0537 24.3718C49.3608 23.9367 49.5144 23.3631 49.5144 22.6504Z" fill="white"/>
<path d="M58.5711 22.5955C58.5711 23.7427 58.2687 24.6495 57.6633 25.3152C57.1224 25.9077 56.4498 26.2037 55.6469 26.2037C54.7803 26.2037 54.1577 25.8845 53.7793 25.2463H53.7518V28.7996H52.2901V21.5264C52.2901 20.8052 52.2716 20.065 52.2359 19.3058H53.5215L53.6031 20.375H53.6305C54.1173 19.5694 54.8571 19.1674 55.8505 19.1674C56.626 19.1674 57.2739 19.4816 57.7936 20.1107C58.3113 20.7405 58.5711 21.5686 58.5711 22.5955ZM57.0819 22.6504C57.0819 21.9938 56.9373 21.4526 56.6479 21.0266C56.3318 20.5824 55.9088 20.3602 55.3761 20.3602C55.0148 20.3602 54.6877 20.4839 54.3943 20.7279C54.1008 20.9739 53.9095 21.2951 53.8197 21.693C53.7751 21.8786 53.7518 22.0304 53.7518 22.1499V23.2746C53.7518 23.7652 53.8986 24.1792 54.1906 24.5173C54.4841 24.8547 54.8653 25.0241 55.3356 25.0241C55.8862 25.0241 56.3147 24.8062 56.6212 24.3718C56.9283 23.9367 57.0819 23.3631 57.0819 22.6504Z" fill="white"/>
<path d="M67.0318 23.4279C67.0318 24.2236 66.7624 24.871 66.2214 25.3708C65.627 25.9169 64.7995 26.1897 63.736 26.1897C62.7542 26.1897 61.9671 25.9957 61.3713 25.6069L61.71 24.3578C62.3518 24.7557 63.0559 24.9553 63.8231 24.9553C64.3737 24.9553 64.8022 24.8274 65.11 24.5729C65.4165 24.3185 65.5694 23.9769 65.5694 23.5509C65.5694 23.1713 65.4433 22.8515 65.1903 22.5921C64.9386 22.3327 64.5183 22.0916 63.9314 21.8688C62.3339 21.2579 61.5359 20.3631 61.5359 19.1864C61.5359 18.4174 61.8156 17.7869 62.3758 17.2962C62.9339 16.8049 63.6785 16.5596 64.6095 16.5596C65.4398 16.5596 66.1296 16.7079 66.6801 17.0038L66.3147 18.2255C65.8005 17.9387 65.2191 17.7953 64.5684 17.7953C64.0542 17.7953 63.6524 17.9254 63.3644 18.184C63.121 18.4153 62.999 18.6972 62.999 19.0311C62.999 19.4008 63.1382 19.7066 63.4179 19.947C63.6613 20.1691 64.1035 20.4095 64.7453 20.6689C65.5303 20.9929 66.1069 21.3718 66.4779 21.8062C66.8474 22.2392 67.0318 22.7812 67.0318 23.4279Z" fill="white"/>
<path d="M71.8646 20.4307H70.2534V23.7056C70.2534 24.5386 70.5372 24.9547 71.1063 24.9547C71.3675 24.9547 71.5842 24.9315 71.7556 24.8851L71.796 26.0231C71.5081 26.1335 71.1289 26.189 70.6593 26.189C70.082 26.189 69.6308 26.0084 69.3051 25.6478C68.9809 25.2865 68.8177 24.6806 68.8177 23.8293V20.4293H67.8578V19.3046H68.8177V18.0695L70.2534 17.6253V19.3046H71.8646V20.4307Z" fill="white"/>
<path d="M79.1344 22.623C79.1344 23.6598 78.845 24.511 78.2677 25.1767C77.6623 25.862 76.8588 26.2037 75.8571 26.2037C74.8917 26.2037 74.1231 25.8754 73.5499 25.2189C72.9768 24.5623 72.6902 23.7336 72.6902 22.7347C72.6902 21.6895 72.985 20.8333 73.5767 20.1676C74.167 19.5013 74.9637 19.1681 75.9654 19.1681C76.9308 19.1681 77.7076 19.4963 78.2938 20.1536C78.8546 20.7911 79.1344 21.6143 79.1344 22.623ZM77.6178 22.6715C77.6178 22.0494 77.4882 21.5158 77.2256 21.0709C76.9191 20.5325 76.481 20.2639 75.9133 20.2639C75.3257 20.2639 74.8794 20.5332 74.5729 21.0709C74.3103 21.5165 74.1807 22.0585 74.1807 22.6996C74.1807 23.3217 74.3103 23.8552 74.5729 24.2994C74.889 24.8379 75.3305 25.1064 75.9003 25.1064C76.4584 25.1064 76.8965 24.8323 77.2126 24.2854C77.482 23.832 77.6178 23.2928 77.6178 22.6715Z" fill="white"/>
<path d="M83.8856 20.6238C83.741 20.5964 83.5867 20.5824 83.4249 20.5824C82.9107 20.5824 82.513 20.7813 82.2333 21.1798C81.9899 21.5313 81.8678 21.9756 81.8678 22.5119V26.0511H80.4068L80.4205 21.4301C80.4205 20.6526 80.402 19.9448 80.3656 19.3065H81.6388L81.6923 20.5971H81.7328C81.887 20.1536 82.1304 19.7965 82.4636 19.5287C82.7893 19.2876 83.141 19.1674 83.5202 19.1674C83.6553 19.1674 83.7773 19.1772 83.8856 19.1948V20.6238Z" fill="white"/>
<path d="M90.4227 22.3594C90.4227 22.6279 90.4056 22.8543 90.3692 23.0391H85.984C86.0011 23.7055 86.213 24.2151 86.6202 24.5666C86.9898 24.8808 87.4677 25.0383 88.0546 25.0383C88.7039 25.0383 89.2962 24.9321 89.829 24.7191L90.058 25.7595C89.4354 26.0378 88.7004 26.1763 87.8523 26.1763C86.8321 26.1763 86.0313 25.8684 85.4485 25.2533C84.8671 24.6383 84.5757 23.8123 84.5757 22.7762C84.5757 21.7591 84.8465 20.9121 85.3889 20.2366C85.9566 19.5154 86.7238 19.1548 87.6891 19.1548C88.6374 19.1548 89.3552 19.5154 89.8427 20.2366C90.2287 20.8094 90.4227 21.518 90.4227 22.3594ZM89.0288 21.9707C89.0384 21.5264 88.9431 21.1426 88.745 20.8186C88.492 20.4017 88.1033 20.1937 87.5801 20.1937C87.1022 20.1937 86.7135 20.3968 86.4166 20.8045C86.1732 21.1286 86.0286 21.5173 85.984 21.97H89.0288V21.9707Z" fill="white"/>
<path d="M40.4856 10.4068C40.4856 11.418 40.1898 12.1791 39.599 12.6903C39.0518 13.1619 38.2742 13.3982 37.267 13.3982C36.7676 13.3982 36.3402 13.3759 35.9824 13.3312V7.80633C36.4492 7.72901 36.9519 7.68949 37.4949 7.68949C38.4544 7.68949 39.1775 7.90341 39.6652 8.33124C40.2116 8.81491 40.4856 9.50648 40.4856 10.4068ZM39.5596 10.4317C39.5596 9.77624 39.3904 9.27366 39.0518 8.92315C38.7133 8.5735 38.2189 8.39825 37.5678 8.39825C37.2913 8.39825 37.0558 8.41715 36.8606 8.45666V12.6568C36.9687 12.674 37.1664 12.6817 37.4539 12.6817C38.1259 12.6817 38.6446 12.4901 39.0099 12.107C39.3753 11.7238 39.5596 11.1654 39.5596 10.4317Z" fill="white"/>
<path d="M45.3952 11.2901C45.3952 11.913 45.2217 12.4233 44.8748 12.8236C44.5112 13.2351 44.0293 13.4404 43.4277 13.4404C42.8478 13.4404 42.3861 13.2437 42.0417 12.8485C41.6982 12.4542 41.5264 11.9568 41.5264 11.3571C41.5264 10.73 41.7032 10.2154 42.0585 9.8159C42.4138 9.41642 42.8914 9.21625 43.493 9.21625C44.0729 9.21625 44.5388 9.41299 44.8916 9.80731C45.2268 10.1905 45.3952 10.6853 45.3952 11.2901ZM44.4843 11.3193C44.4843 10.9456 44.4056 10.6252 44.2489 10.358C44.0645 10.035 43.8022 9.87346 43.4612 9.87346C43.1084 9.87346 42.8403 10.035 42.6559 10.358C42.4984 10.6252 42.4205 10.9508 42.4205 11.3356C42.4205 11.7094 42.4992 12.0298 42.6559 12.297C42.8461 12.62 43.1109 12.7815 43.4528 12.7815C43.788 12.7815 44.0511 12.6174 44.2405 12.2884C44.4031 12.016 44.4843 11.693 44.4843 11.3193Z" fill="white"/>
<path d="M51.9784 9.29868L50.7424 13.3485H49.938L49.426 11.5899C49.2961 11.1509 49.1905 10.7145 49.1084 10.2815H49.0925C49.0162 10.7265 48.9106 11.1621 48.7749 11.5899L48.2311 13.3485H47.4174L46.2552 9.29868H47.1576L47.6043 11.2239C47.7124 11.6792 47.8012 12.1131 47.8724 12.5237H47.8883C47.9537 12.1852 48.0618 11.754 48.2143 11.2325L48.7749 9.29954H49.4905L50.0276 11.1913C50.1575 11.6526 50.2631 12.0968 50.3444 12.5246H50.3687C50.4282 12.1079 50.5178 11.6638 50.6368 11.1913L51.1161 9.29954H51.9784V9.29868Z" fill="white"/>
<path d="M56.5307 13.3485H55.6525V11.0289C55.6525 10.3142 55.3877 9.95677 54.8564 9.95677C54.5958 9.95677 54.3855 10.0547 54.2221 10.2514C54.0604 10.4482 53.9783 10.6801 53.9783 10.9456V13.3476H53.1001V10.4559C53.1001 10.1002 53.0892 9.71451 53.0682 9.29699H53.84L53.8811 9.93014H53.9054C54.0076 9.73341 54.1601 9.57104 54.3604 9.44131C54.5983 9.29011 54.8648 9.21365 55.1564 9.21365C55.5251 9.21365 55.8318 9.33564 56.0756 9.58049C56.379 9.88031 56.5307 10.3279 56.5307 10.9224V13.3485Z" fill="white"/>
<path d="M58.9522 13.3484H58.0749V7.44043H58.9522V13.3484Z" fill="white"/>
<path d="M64.1224 11.2901C64.1224 11.913 63.9489 12.4233 63.602 12.8236C63.2383 13.2351 62.7557 13.4404 62.1548 13.4404C61.5741 13.4404 61.1124 13.2437 60.7689 12.8485C60.4253 12.4542 60.2535 11.9568 60.2535 11.3571C60.2535 10.73 60.4303 10.2154 60.7856 9.8159C61.1409 9.41642 61.6186 9.21625 62.2194 9.21625C62.8001 9.21625 63.2651 9.41299 63.6187 9.80731C63.9539 10.1905 64.1224 10.6853 64.1224 11.2901ZM63.2107 11.3193C63.2107 10.9456 63.1319 10.6252 62.9752 10.358C62.7917 10.035 62.5286 9.87346 62.1884 9.87346C61.8347 9.87346 61.5666 10.035 61.3831 10.358C61.2256 10.6252 61.1476 10.9508 61.1476 11.3356C61.1476 11.7094 61.2264 12.0298 61.3831 12.297C61.5733 12.62 61.8381 12.7815 62.18 12.7815C62.5152 12.7815 62.7774 12.6174 62.9668 12.2884C63.1302 12.016 63.2107 11.693 63.2107 11.3193Z" fill="white"/>
<path d="M68.3725 13.3485H67.584L67.5186 12.882H67.4943C67.2245 13.254 66.8399 13.4404 66.3405 13.4404C65.9676 13.4404 65.6659 13.3176 65.4388 13.0736C65.2327 12.8519 65.1296 12.5762 65.1296 12.2489C65.1296 11.754 65.3307 11.3769 65.7355 11.1157C66.1394 10.8545 66.7075 10.7265 67.439 10.7326V10.657C67.439 10.1235 67.1658 9.85714 66.6187 9.85714C66.229 9.85714 65.8855 9.95765 65.5888 10.157L65.4103 9.56591C65.7774 9.33309 66.2307 9.21625 66.7653 9.21625C67.7977 9.21625 68.3155 9.77467 68.3155 10.8915V12.3829C68.3155 12.7875 68.3348 13.1097 68.3725 13.3485ZM67.4608 11.9568V11.3322C66.4921 11.315 66.0078 11.5874 66.0078 12.1483C66.0078 12.3597 66.0631 12.5178 66.1762 12.6234C66.2893 12.7291 66.4335 12.7815 66.6053 12.7815C66.798 12.7815 66.9781 12.7188 67.1424 12.5942C67.3075 12.4688 67.4088 12.3099 67.4466 12.1148C67.4558 12.071 67.4608 12.0178 67.4608 11.9568Z" fill="white"/>
<path d="M73.3624 13.3484H72.5831L72.542 12.6981H72.5177C72.2689 13.1929 71.8449 13.4404 71.2491 13.4404C70.7731 13.4404 70.3768 13.2488 70.0625 12.8656C69.7483 12.4825 69.5916 11.985 69.5916 11.3742C69.5916 10.7187 69.7617 10.1878 70.1036 9.78233C70.4346 9.40432 70.8402 9.21532 71.3228 9.21532C71.8532 9.21532 72.2244 9.39831 72.4356 9.76514H72.4524V7.44043H73.3314V12.2574C73.3314 12.6517 73.3414 13.0151 73.3624 13.3484ZM72.4524 11.6406V10.9653C72.4524 10.8485 72.444 10.754 72.4281 10.6818C72.3786 10.4653 72.2722 10.2832 72.1105 10.1363C71.9471 9.98937 71.7502 9.91549 71.5231 9.91549C71.1954 9.91549 70.939 10.0486 70.7505 10.3158C70.5636 10.583 70.4689 10.9241 70.4689 11.3407C70.4689 11.7411 70.5586 12.0658 70.7388 12.3158C70.929 12.5821 71.1854 12.7153 71.5063 12.7153C71.7946 12.7153 72.025 12.6045 72.2002 12.382C72.3694 12.1766 72.4524 11.9292 72.4524 11.6406Z" fill="white"/>
<path d="M80.8733 11.2901C80.8733 11.913 80.6999 12.4233 80.353 12.8236C79.9893 13.2351 79.5083 13.4404 78.9058 13.4404C78.3268 13.4404 77.8651 13.2437 77.5198 12.8485C77.1763 12.4542 77.0045 11.9568 77.0045 11.3571C77.0045 10.73 77.1813 10.2154 77.5366 9.8159C77.8919 9.41642 78.3695 9.21625 78.972 9.21625C79.551 9.21625 80.0178 9.41299 80.3697 9.80731C80.7049 10.1905 80.8733 10.6853 80.8733 11.2901ZM79.9633 11.3193C79.9633 10.9456 79.8845 10.6252 79.7278 10.358C79.5427 10.035 79.2812 9.87346 78.9393 9.87346C78.5874 9.87346 78.3192 10.035 78.1341 10.358C77.9765 10.6252 77.8986 10.9508 77.8986 11.3356C77.8986 11.7094 77.9774 12.0298 78.1341 12.297C78.3243 12.62 78.5891 12.7815 78.931 12.7815C79.2661 12.7815 79.5301 12.6174 79.7195 12.2884C79.8812 12.016 79.9633 11.693 79.9633 11.3193Z" fill="white"/>
<path d="M85.5949 13.3485H84.7176V11.0289C84.7176 10.3142 84.4528 9.95677 83.9207 9.95677C83.6601 9.95677 83.4498 10.0547 83.2872 10.2514C83.1246 10.4482 83.0434 10.6801 83.0434 10.9456V13.3476H82.1644V10.4559C82.1644 10.1002 82.1543 9.71451 82.1333 9.29699H82.9043L82.9453 9.93014H82.9696C83.0727 9.73341 83.2252 9.57104 83.4246 9.44131C83.6634 9.29011 83.9291 9.21365 84.2215 9.21365C84.5894 9.21365 84.8961 9.33564 85.1399 9.58049C85.4441 9.88031 85.5949 10.3279 85.5949 10.9224V13.3485Z" fill="white"/>
<path d="M91.5048 9.9731H90.5378V11.9404C90.5378 12.4404 90.7096 12.6904 91.0498 12.6904C91.2073 12.6904 91.338 12.6767 91.4411 12.6483L91.4637 13.3313C91.2903 13.3983 91.0623 13.4318 90.7816 13.4318C90.4347 13.4318 90.1649 13.3236 89.9697 13.1071C89.7736 12.8906 89.6764 12.5263 89.6764 12.0152V9.9731H89.099V9.29871H89.6764V8.55645L90.5369 8.29013V9.29785H91.5039V9.9731H91.5048Z" fill="white"/>
<path d="M96.154 13.3484H95.275V11.0461C95.275 10.3201 95.0102 9.95672 94.4798 9.95672C94.0725 9.95672 93.7943 10.1672 93.6418 10.5882C93.6158 10.6766 93.6007 10.7849 93.6007 10.912V13.3476H92.7234V7.44043H93.6007V9.88112H93.6175C93.894 9.43697 94.2904 9.21532 94.8041 9.21532C95.1677 9.21532 95.4686 9.33731 95.7074 9.58216C96.0048 9.88714 96.154 10.3407 96.154 10.9404V13.3484Z" fill="white"/>
<path d="M100.95 11.132C100.95 11.2935 100.938 11.4292 100.917 11.54H98.2837C98.2954 11.9404 98.4211 12.2454 98.6649 12.4567C98.8878 12.6457 99.1752 12.7402 99.5272 12.7402C99.9168 12.7402 100.272 12.6766 100.592 12.5486L100.73 13.174C100.355 13.3407 99.9143 13.424 99.404 13.424C98.7923 13.424 98.3105 13.2393 97.9619 12.8699C97.6116 12.5005 97.4382 12.0048 97.4382 11.3828C97.4382 10.772 97.5999 10.2634 97.9258 9.85793C98.2661 9.42495 98.7261 9.20845 99.3068 9.20845C99.8749 9.20845 100.306 9.42495 100.598 9.85793C100.834 10.2016 100.95 10.6268 100.95 11.132ZM100.112 10.8992C100.119 10.632 100.061 10.4017 99.942 10.2076C99.7894 9.95759 99.5573 9.83216 99.2431 9.83216C98.9565 9.83216 98.7227 9.95415 98.5443 10.199C98.3984 10.394 98.3121 10.6268 98.2837 10.8992H100.112Z" fill="white"/>
</svg>
