<svg width="90" height="90" viewBox="0 0 90 90" fill="none" xmlns="http://www.w3.org/2000/svg">
<rect width="90" height="90" rx="8" fill="#FF89D9"/>
<path d="M49.1625 32.8125L47.8125 34.1625L49.8125 36.1625C50.0875 36.475 50.225 36.8375 50.225 37.25C50.225 37.6625 50.0875 38.05 49.8125 38.325L45.375 42.8375L46.625 44.1875L51.1625 39.675C51.825 38.9375 52.15 38.125 52.15 37.25C52.15 36.375 51.825 35.55 51.1625 34.8125L49.1625 32.8125ZM44.1875 35.3375L42.8375 36.6875L43.6 37.3875C43.875 37.6625 44.0125 38.0375 44.0125 38.5C44.0125 38.9625 43.875 39.3375 43.6 39.6125L42.8375 40.3125L44.1875 41.6625L44.8875 40.9C45.55 40.1625 45.8875 39.3625 45.8875 38.5C45.8875 37.6 45.55 36.7875 44.8875 36.0375L44.1875 35.3375ZM57.25 37.325C56.3875 37.325 55.5875 37.6625 54.85 38.325L47.8125 45.375L49.1625 46.625L56.1375 39.675C56.45 39.3625 56.825 39.2 57.25 39.2C57.675 39.2 58.05 39.3625 58.3625 39.675L59.125 40.4375L60.4125 39.0875L59.7125 38.325C58.975 37.6625 58.15 37.325 57.25 37.325ZM39.75 41L33.5 58.5L51 52.25L39.75 41ZM54.75 44.825C53.875 44.825 53.075 45.1625 52.325 45.825L50.3375 47.8125L51.6875 49.1625L53.675 47.175C53.9875 46.8625 54.3375 46.7 54.75 46.7C55.1625 46.7 55.5375 46.8625 55.85 47.175L57.875 49.1625L59.1875 47.875L57.1875 45.825C56.45 45.1625 55.625 44.825 54.75 44.825Z" fill="white"/>
</svg>
