<svg width="119" height="36" viewBox="0 0 119 36" fill="none" xmlns="http://www.w3.org/2000/svg">
<path d="M0 4.8C0 2.14903 2.10585 0 4.70356 0H114.296C116.894 0 119 2.14903 119 4.8V31.2C119 33.851 116.894 36 114.296 36H4.70356C2.10585 36 0 33.851 0 31.2V4.8Z" fill="black"/>
<path fill-rule="evenodd" clip-rule="evenodd" d="M0 31.2V4.8C0 2.14903 2.10585 0 4.70356 0H114.296C116.894 0 119 2.14903 119 4.8V31.2C119 33.851 116.894 36 114.296 36H4.70356C2.10585 36 0 33.851 0 31.2ZM0.705534 31.2V4.8C0.705534 2.54668 2.49551 0.72 4.70356 0.72H114.296C116.504 0.72 118.294 2.54668 118.294 4.8V31.2C118.294 33.4533 116.504 35.28 114.296 35.28H4.70356C2.49551 35.28 0.705534 33.4533 0.705534 31.2Z" fill="white" fill-opacity="0.3"/>
<path d="M25.0921 21.8599C27.9097 20.2664 30.0459 19.0524 30.23 18.9581C30.8188 18.6354 31.4272 17.7816 30.23 17.1186C29.8435 16.9101 27.7623 15.7336 25.0921 14.2168L21.3906 18.0666L25.0919 21.8599H25.0921Z" fill="#FFD900"/>
<path d="M21.3907 18.0664L9.60449 30.3C9.88095 30.3378 10.1933 30.2622 10.5617 30.0537C11.3348 29.618 19.5301 25.0086 25.0924 21.8605L21.3907 18.0664Z" fill="#F43249"/>
<path d="M21.3903 18.0661L25.0916 14.235C25.0916 14.235 11.3903 6.53446 10.5611 6.08008C10.2492 5.88902 9.89909 5.83253 9.58594 5.88902L21.3903 18.0659V18.0661Z" fill="#00EE76"/>
<path d="M21.3908 18.0665L9.58617 5.88965C9.10705 6.00366 8.70215 6.43956 8.70215 7.33066V28.8585C8.70215 29.6746 9.01551 30.2623 9.60432 30.3188L21.3906 18.0663L21.3908 18.0665Z" fill="#00D3FF"/>
<path d="M60.296 19.5576C58.1783 19.5576 56.4286 21.2453 56.4286 23.5594C56.4286 25.8545 58.1599 27.5612 60.2962 27.5612C62.4322 27.5612 64.1634 25.8734 64.1634 23.5594C64.1634 21.2453 62.4322 19.5576 60.296 19.5576ZM60.296 25.9688C59.1355 25.9688 58.1232 24.9632 58.1232 23.5415C58.1232 22.1001 59.1363 21.1143 60.296 21.1143C61.4556 21.1143 62.4687 22.1001 62.4687 23.5415C62.4687 24.9632 61.4556 25.9688 60.296 25.9688ZM51.8799 19.5576C49.7436 19.5576 48.0123 21.2453 48.0123 23.5594C48.0123 25.8545 49.7436 27.5612 51.8799 27.5612C54.0159 27.5612 55.7472 25.8734 55.7472 23.5594C55.7472 21.2453 54.0159 19.5576 51.8796 19.5576H51.8799ZM51.8799 25.9688C50.7192 25.9688 49.7071 24.9632 49.7071 23.5415C49.7071 22.1001 50.7202 21.1143 51.8799 21.1143C53.0403 21.1143 54.0526 22.1001 54.0526 23.5415C54.0526 24.9632 53.0577 25.9688 51.8799 25.9688ZM41.8798 20.7905V22.4782H45.7837C45.6728 23.4265 45.3606 24.1282 44.8999 24.6027C44.3292 25.1904 43.4452 25.8356 41.8798 25.8356C39.4669 25.8356 37.6075 23.8254 37.6075 21.3406C37.6075 18.8559 39.4679 16.8076 41.8798 16.8076C43.1869 16.8076 44.1267 17.3389 44.8265 18.0219L45.9861 16.8265C45.0097 15.8596 43.7027 15.1201 41.8798 15.1201C38.5829 15.1201 35.8203 17.9077 35.8203 21.3028C35.8203 24.6982 38.5829 27.4858 41.8798 27.4858C43.666 27.4858 44.9924 26.8792 46.0603 25.7405C47.1468 24.6216 47.4783 23.0471 47.4783 21.7765C47.4783 21.3784 47.4418 21.0179 47.386 20.7143L41.8798 20.7905ZM82.8005 22.099C82.4872 21.2075 81.4933 19.5576 79.5036 19.5576C77.5142 19.5576 75.8754 21.1699 75.8754 23.5594C75.8754 25.797 77.5142 27.5612 79.6879 27.5612C81.4558 27.5612 82.4688 26.4422 82.8921 25.797L81.585 24.8868C81.1426 25.5509 80.5536 25.9866 79.6879 25.9866C78.8223 25.9866 78.2149 25.5885 77.8275 24.7726L82.9655 22.5538L82.8005 22.099ZM77.57 23.4462C77.5335 21.9094 78.7307 21.1132 79.577 21.1132C80.2586 21.1132 80.8111 21.4546 81.0133 21.967L77.57 23.4462ZM73.3895 27.296H75.0841V15.5747H73.3895V27.296ZM70.6277 20.4491H70.5727C70.1861 19.9746 69.4681 19.5576 68.5466 19.5576C66.6128 19.5576 64.8633 21.3217 64.8633 23.5594C64.8633 25.797 66.6311 27.5425 68.5466 27.5425C69.4671 27.5425 70.1853 27.1253 70.5727 26.6318H70.6277V27.2009C70.6277 28.7376 69.8353 29.5525 68.5649 29.5525C67.5335 29.5525 66.8886 28.7752 66.6311 28.13L65.1583 28.7752C65.5813 29.8374 66.7053 31.1459 68.5649 31.1459C70.5535 31.1459 72.2298 29.9319 72.2298 26.9924V19.8039H70.6277V20.4491ZM68.694 25.9688C67.5335 25.9688 66.5579 24.9632 66.5579 23.5604C66.5579 22.1576 67.5343 21.133 68.694 21.133C69.8363 21.133 70.7568 22.1576 70.7568 23.5604C70.756 24.9443 69.8353 25.9688 68.694 25.9688ZM90.7011 15.5749H86.6496V27.296H88.3442V22.8575H90.7011C92.5798 22.8575 94.421 21.4536 94.421 19.2162C94.421 16.9785 92.5798 15.5747 90.7011 15.5747V15.5749ZM90.7559 21.2275H88.3615V17.2057H90.7559C92.0081 17.2057 92.7447 18.2869 92.7447 19.216C92.7272 20.1264 92.0091 21.2275 90.7559 21.2275ZM101.18 19.5387C99.9647 19.5387 98.6939 20.0888 98.1783 21.3406L99.6705 21.9859C100.002 21.3406 100.591 21.1321 101.218 21.1321C102.102 21.1321 102.986 21.682 103.004 22.649V22.7632C102.691 22.5736 102.047 22.3075 101.236 22.3075C99.6157 22.3075 97.9759 23.2369 97.9759 24.9443C97.9759 26.5187 99.3023 27.5236 100.775 27.5236C101.917 27.5236 102.543 26.9924 102.93 26.3669H102.985V27.2773H104.623V22.7819C104.605 20.7149 103.114 19.5385 101.18 19.5385V19.5387ZM100.978 25.9499C100.425 25.9499 99.6513 25.6649 99.6513 24.964C99.6513 24.0536 100.609 23.7122 101.438 23.7122C102.174 23.7122 102.524 23.8829 102.985 24.1103C102.856 25.1914 101.953 25.9499 100.978 25.9499ZM110.535 19.8049L108.602 24.8687H108.547L106.54 19.8047H104.717L107.737 26.8979L106.024 30.8621H107.792L112.414 19.8047H110.535L110.535 19.8049ZM95.3607 27.296H97.0553V15.5747H95.3607V27.296Z" fill="white"/>
<path d="M39.1503 11.8833C38.6385 11.8833 38.1669 11.7579 37.7354 11.507C37.304 11.2561 36.9603 10.9131 36.7044 10.4779C36.4536 10.0376 36.3281 9.54859 36.3281 9.01099C36.3281 8.47339 36.4536 7.98699 36.7044 7.55179C36.9603 7.11147 37.304 6.76587 37.7354 6.51499C38.1669 6.26411 38.6385 6.13867 39.1503 6.13867C39.5566 6.13867 39.9354 6.21291 40.2866 6.36139C40.6378 6.50987 40.9313 6.71723 41.1671 6.98347L40.5801 7.58251C40.4045 7.38283 40.1938 7.22923 39.948 7.12171C39.7072 7.01419 39.4387 6.96043 39.1427 6.96043C38.7966 6.96043 38.4729 7.04491 38.1719 7.21387C37.8709 7.38283 37.6301 7.62347 37.4495 7.93579C37.2688 8.24811 37.1785 8.60651 37.1785 9.01099C37.1785 9.41547 37.2688 9.77387 37.4495 10.0862C37.6301 10.3985 37.8709 10.6392 38.1719 10.8081C38.4729 10.9771 38.7991 11.0616 39.1503 11.0616C39.4714 11.0616 39.7398 11.0129 39.9555 10.9156C40.1712 10.8184 40.3644 10.6878 40.535 10.524C40.6454 10.4113 40.7382 10.2705 40.8134 10.1016C40.8937 9.93259 40.9464 9.74827 40.9715 9.54859H39.1427V8.78059H41.7692C41.7943 8.92395 41.8068 9.07243 41.8068 9.22603C41.8068 9.57419 41.7541 9.90955 41.6488 10.2321C41.5434 10.5496 41.3754 10.826 41.1446 11.0616C40.6378 11.6094 39.9731 11.8833 39.1503 11.8833Z" fill="white"/>
<path d="M42.5917 6.26155H45.8654V7.08331H43.4346V8.60395H45.6245V9.41803H43.4346V10.9387H45.8654V11.7604H42.5917V6.26155Z" fill="white"/>
<path d="M47.8162 7.08331H46.311V6.26155H50.1642V7.08331H48.659V11.7604H47.8162V7.08331Z" fill="white"/>
<path d="M52.3677 6.26155H53.2106V11.7604H52.3677V6.26155Z" fill="white"/>
<path d="M55.3433 7.08331H53.8382V6.26155H57.6913V7.08331H56.1862V11.7604H55.3433V7.08331Z" fill="white"/>
<path d="M62.269 11.8833C61.7472 11.8833 61.2731 11.7579 60.8466 11.507C60.4202 11.251 60.084 10.9028 59.8382 10.4625C59.5974 10.0222 59.477 9.53835 59.477 9.01099C59.477 8.48363 59.5974 8.00235 59.8382 7.56715C60.084 7.12683 60.4202 6.77867 60.8466 6.52267C61.2731 6.26667 61.7472 6.13867 62.269 6.13867C62.7908 6.13867 63.2624 6.26667 63.6838 6.52267C64.1103 6.77867 64.4464 7.12683 64.6923 7.56715C64.9381 8.00235 65.061 8.48363 65.061 9.01099C65.061 9.53835 64.9381 10.0222 64.6923 10.4625C64.4515 10.9028 64.1178 11.251 63.6914 11.507C63.2649 11.7579 62.7908 11.8833 62.269 11.8833ZM62.269 11.0616C62.6252 11.0616 62.9513 10.9745 63.2473 10.8004C63.5434 10.6264 63.7767 10.3857 63.9472 10.0785C64.1178 9.76619 64.2031 9.41035 64.2031 9.01099C64.2031 8.61163 64.1178 8.25835 63.9472 7.95115C63.7767 7.63883 63.5434 7.39563 63.2473 7.22155C62.9513 7.04747 62.6252 6.96043 62.269 6.96043C61.9128 6.96043 61.5867 7.04747 61.2907 7.22155C60.9947 7.39563 60.7589 7.63883 60.5833 7.95115C60.4127 8.25835 60.3274 8.61163 60.3274 9.01099C60.3274 9.41035 60.4127 9.76619 60.5833 10.0785C60.7589 10.3857 60.9947 10.6264 61.2907 10.8004C61.5867 10.9745 61.9128 11.0616 62.269 11.0616Z" fill="white"/>
<path d="M65.8361 6.26155H66.837L69.2452 10.2628H69.2904L69.2452 9.20299V6.26155H70.0806V11.7604H69.2001L66.6714 7.55179H66.6263L66.6714 8.61163V11.7604H65.8361V6.26155Z" fill="white"/>
</svg>
