<svg width="136" height="40" viewBox="0 0 136 40" fill="none" xmlns="http://www.w3.org/2000/svg">
<path d="M0.5 5.33333C0.5 2.66479 2.66735 0.5 5.34278 0.5H129.83C132.505 0.5 134.672 2.66479 134.672 5.33333V34.6667C134.672 37.3352 132.505 39.5 129.83 39.5H5.34278C2.66735 39.5 0.5 37.3352 0.5 34.6667V5.33333Z" stroke="#F2F5FF"/>
<path fill-rule="evenodd" clip-rule="evenodd" d="M0 34.6667V5.33333C0 2.38782 2.39204 0 5.34278 0H129.83C132.78 0 135.172 2.38781 135.172 5.33333V34.6667C135.172 37.6122 132.78 40 129.83 40H5.34278C2.39205 40 0 37.6122 0 34.6667ZM0.801417 34.6667V5.33333C0.801417 2.82964 2.83466 0.8 5.34278 0.8H129.83C132.338 0.8 134.371 2.82964 134.371 5.33333V34.6667C134.371 37.1704 132.338 39.2 129.83 39.2H5.34278C2.83466 39.2 0.801417 37.1704 0.801417 34.6667Z" fill="white" fill-opacity="0.3"/>
<path d="M28.5023 24.2887C31.7028 22.5182 34.1294 21.1692 34.3385 21.0645C35.0074 20.7059 35.6984 19.7573 34.3385 19.0206C33.8994 18.7889 31.5354 17.4817 28.5023 15.7964L24.2979 20.0739L28.5021 24.2887H28.5023Z" fill="#FFD900"/>
<path d="M24.2972 20.0737L10.9092 33.6666C11.2232 33.7086 11.578 33.6246 11.9965 33.3929C12.8747 32.9088 22.1838 27.7873 28.5019 24.2894L24.2972 20.0737Z" fill="#F43249"/>
<path d="M24.2973 20.0738L28.5015 15.817C28.5015 15.817 12.9382 7.26083 11.9964 6.75597C11.642 6.54368 11.2444 6.48092 10.8887 6.54368L24.2973 20.0736V20.0738Z" fill="#00EE76"/>
<path d="M24.2978 20.0738L10.8889 6.54395C10.3447 6.67062 9.88477 7.15495 9.88477 8.14507V32.0649C9.88477 32.9717 10.2407 33.6247 10.9095 33.6875L24.2976 20.0736L24.2978 20.0738Z" fill="#00D3FF"/>
<path d="M68.4904 21.7303C66.085 21.7303 64.0975 23.6056 64.0975 26.1768C64.0975 28.7269 66.0641 30.6232 68.4907 30.6232C70.917 30.6232 72.8834 28.7479 72.8834 26.1768C72.8834 23.6056 70.917 21.7303 68.4904 21.7303ZM68.4904 28.8538C67.1723 28.8538 66.0224 27.7366 66.0224 26.1569C66.0224 24.5553 67.1732 23.46 68.4904 23.46C69.8077 23.46 70.9585 24.5553 70.9585 26.1569C70.9585 27.7366 69.8077 28.8538 68.4904 28.8538ZM58.9305 21.7303C56.504 21.7303 54.5374 23.6056 54.5374 26.1768C54.5374 28.7269 56.504 30.6232 58.9305 30.6232C61.3569 30.6232 63.3235 28.7479 63.3235 26.1768C63.3235 23.6056 61.3569 21.7303 58.9303 21.7303H58.9305ZM58.9305 28.8538C57.6121 28.8538 56.4625 27.7366 56.4625 26.1569C56.4625 24.5553 57.6133 23.46 58.9305 23.46C60.2487 23.46 61.3986 24.5553 61.3986 26.1569C61.3986 27.7366 60.2684 28.8538 58.9305 28.8538ZM47.5715 23.1003V24.9755H52.0059C51.8799 26.0291 51.5253 26.8088 51.002 27.336C50.3537 27.989 49.3496 28.7059 47.5715 28.7059C44.8306 28.7059 42.7186 26.4723 42.7186 23.7115C42.7186 20.9506 44.8318 18.6748 47.5715 18.6748C49.0562 18.6748 50.1238 19.2651 50.9186 20.024L52.2358 18.6958C51.1268 17.6215 49.6421 16.7998 47.5715 16.7998C43.8265 16.7998 40.6885 19.8971 40.6885 23.6695C40.6885 27.4422 43.8265 30.5394 47.5715 30.5394C49.6004 30.5394 51.1071 29.8654 52.3201 28.6003C53.5543 27.357 53.9308 25.6075 53.9308 24.1958C53.9308 23.7535 53.8894 23.3529 53.8259 23.0156L47.5715 23.1003ZM94.0534 24.5542C93.6975 23.5636 92.5685 21.7303 90.3085 21.7303C88.0486 21.7303 86.1871 23.5218 86.1871 26.1768C86.1871 28.663 88.0486 30.6232 90.5178 30.6232C92.5259 30.6232 93.6767 29.3799 94.1574 28.663L92.6727 27.6517C92.1702 28.3896 91.5011 28.8737 90.5178 28.8737C89.5345 28.8737 88.8446 28.4313 88.4046 27.5248L94.2408 25.0595L94.0534 24.5542ZM88.1121 26.051C88.0706 24.3435 89.4305 23.4588 90.3918 23.4588C91.166 23.4588 91.7936 23.8382 92.0234 24.4074L88.1121 26.051ZM83.3634 30.3285H85.2884V17.3049H83.3634V30.3285ZM80.2263 22.7209H80.1638C79.7247 22.1937 78.9091 21.7303 77.8623 21.7303C75.6657 21.7303 73.6785 23.6905 73.6785 26.1768C73.6785 28.663 75.6865 30.6024 77.8623 30.6024C78.9079 30.6024 79.7238 30.1389 80.1638 29.5906H80.2263V30.2228C80.2263 31.9303 79.3262 32.8358 77.8831 32.8358C76.7115 32.8358 75.979 31.9721 75.6865 31.2552L74.0135 31.9721C74.4941 33.1524 75.7708 34.6063 77.8831 34.6063C80.142 34.6063 82.0461 33.2573 82.0461 29.9912V22.004H80.2263V22.7209ZM78.0297 28.8538C76.7115 28.8538 75.6034 27.7366 75.6034 26.1779C75.6034 24.6192 76.7125 23.4807 78.0297 23.4807C79.3273 23.4807 80.3729 24.6192 80.3729 26.1779C80.372 27.7156 79.3262 28.8538 78.0297 28.8538ZM103.028 17.3051H98.4256V30.3285H100.351V25.3968H103.028C105.162 25.3968 107.253 23.837 107.253 21.351C107.253 18.8647 105.162 17.3049 103.028 17.3049V17.3051ZM103.09 23.5857H100.37V19.1172H103.09C104.512 19.1172 105.349 20.3184 105.349 21.3508C105.329 22.3623 104.514 23.5857 103.09 23.5857ZM114.931 21.7093C113.55 21.7093 112.107 22.3206 111.521 23.7115L113.216 24.4284C113.593 23.7115 114.262 23.4798 114.974 23.4798C115.978 23.4798 116.982 24.0908 117.003 25.1652V25.2921C116.647 25.0814 115.915 24.7858 114.994 24.7858C113.154 24.7858 111.291 25.8184 111.291 27.7156C111.291 29.4648 112.798 30.5814 114.471 30.5814C115.768 30.5814 116.479 29.9912 116.918 29.2962H116.981V30.3078H118.842V25.3129C118.821 23.0163 117.127 21.7091 114.931 21.7091V21.7093ZM114.701 28.8328C114.073 28.8328 113.194 28.5163 113.194 27.7375C113.194 26.7259 114.282 26.3466 115.223 26.3466C116.06 26.3466 116.457 26.5363 116.981 26.7889C116.834 27.9902 115.809 28.8328 114.701 28.8328ZM125.558 22.0051L123.361 27.6316H123.298L121.019 22.0049H118.948L122.379 29.8862L120.433 34.2908H122.441L127.691 22.0049H125.557L125.558 22.0051ZM108.321 30.3285H110.246V17.3049H108.321V30.3285Z" fill="white"/>
<path d="M44.4713 13.2032C43.89 13.2032 43.3543 13.0639 42.8642 12.7851C42.3741 12.5064 41.9837 12.1252 41.693 11.6416C41.4081 11.1524 41.2656 10.6091 41.2656 10.0118C41.2656 9.41445 41.4081 8.874 41.693 8.39045C41.9837 7.9012 42.3741 7.5172 42.8642 7.23845C43.3543 6.95969 43.89 6.82031 44.4713 6.82031C44.9329 6.82031 45.3632 6.9028 45.7621 7.06778C46.161 7.23276 46.4944 7.46316 46.7623 7.75898L46.0955 8.42458C45.896 8.20271 45.6567 8.03205 45.3774 7.91258C45.1039 7.79311 44.799 7.73338 44.4627 7.73338C44.0695 7.73338 43.7019 7.82725 43.36 8.01498C43.0181 8.20271 42.7445 8.47009 42.5393 8.81711C42.3342 9.16413 42.2316 9.56236 42.2316 10.0118C42.2316 10.4612 42.3342 10.8594 42.5393 11.2064C42.7445 11.5535 43.0181 11.8208 43.36 12.0086C43.7019 12.1963 44.0724 12.2902 44.4713 12.2902C44.836 12.2902 45.1409 12.2361 45.386 12.128C45.631 12.02 45.8504 11.8749 46.0442 11.6928C46.1696 11.5677 46.275 11.4112 46.3605 11.2235C46.4517 11.0358 46.5115 10.831 46.54 10.6091H44.4627V9.75578H47.4462C47.4747 9.91507 47.4889 10.08 47.4889 10.2507C47.4889 10.6376 47.4291 11.0102 47.3094 11.3686C47.1897 11.7213 46.9988 12.0285 46.7366 12.2902C46.161 12.8989 45.4059 13.2032 44.4713 13.2032Z" fill="white"/>
<path d="M48.3804 6.95685H52.099V7.86991H49.3378V9.55951H51.8254V10.464H49.3378V12.1536H52.099V13.0667H48.3804V6.95685Z" fill="white"/>
<path d="M54.3149 7.86991H52.6052V6.95685H56.982V7.86991H55.2723V13.0667H54.3149V7.86991Z" fill="white"/>
<path d="M59.4851 6.95685H60.4425V13.0667H59.4851V6.95685Z" fill="white"/>
<path d="M62.865 7.86991H61.1553V6.95685H65.5321V7.86991H63.8225V13.0667H62.865V7.86991Z" fill="white"/>
<path d="M70.7319 13.2032C70.1393 13.2032 69.6007 13.0639 69.1163 12.7851C68.6319 12.5007 68.25 12.1138 67.9708 11.6246C67.6972 11.1353 67.5605 10.5977 67.5605 10.0118C67.5605 9.42582 67.6972 8.89107 67.9708 8.40751C68.25 7.91827 68.6319 7.53142 69.1163 7.24698C69.6007 6.96253 70.1393 6.82031 70.7319 6.82031C71.3246 6.82031 71.8603 6.96253 72.3391 7.24698C72.8235 7.53142 73.2053 7.91827 73.4845 8.40751C73.7638 8.89107 73.9034 9.42582 73.9034 10.0118C73.9034 10.5977 73.7638 11.1353 73.4845 11.6246C73.211 12.1138 72.832 12.5007 72.3476 12.7851C71.8632 13.0639 71.3246 13.2032 70.7319 13.2032ZM70.7319 12.2902C71.1366 12.2902 71.507 12.1935 71.8432 12C72.1795 11.8066 72.4445 11.5392 72.6383 11.1979C72.832 10.8509 72.9289 10.4555 72.9289 10.0118C72.9289 9.56805 72.832 9.17551 72.6383 8.83418C72.4445 8.48716 72.1795 8.21693 71.8432 8.02351C71.507 7.83009 71.1366 7.73338 70.7319 7.73338C70.3273 7.73338 69.9569 7.83009 69.6206 8.02351C69.2844 8.21693 69.0166 8.48716 68.8171 8.83418C68.6233 9.17551 68.5264 9.56805 68.5264 10.0118C68.5264 10.4555 68.6233 10.8509 68.8171 11.1979C69.0166 11.5392 69.2844 11.8066 69.6206 12C69.9569 12.1935 70.3273 12.2902 70.7319 12.2902Z" fill="white"/>
<path d="M74.7838 6.95685H75.9207L78.6562 11.4027H78.7075L78.6562 10.2251V6.95685H79.6051V13.0667H78.6049L75.7327 8.39045H75.6814L75.7327 9.56805V13.0667H74.7838V6.95685Z" fill="white"/>
</svg>
