<svg width="20" height="20" viewBox="0 0 20 20" fill="none" xmlns="http://www.w3.org/2000/svg">
<path d="M13.0004 9.9999C13.0004 10.7956 12.6843 11.5586 12.1217 12.1212C11.5591 12.6838 10.796 12.9999 10.0004 12.9999C9.20474 12.9999 8.44168 12.6838 7.87907 12.1212C7.31646 11.5586 7.00039 10.7956 7.00039 9.9999C7.00039 9.8289 7.01839 9.6619 7.04939 9.4999H6.00039V13.4969C6.00039 13.7749 6.22539 13.9999 6.50339 13.9999H13.4984C13.6316 13.9996 13.7593 13.9465 13.8534 13.8522C13.9475 13.7579 14.0004 13.6301 14.0004 13.4969V9.4999H12.9514C12.9824 9.6619 13.0004 9.8289 13.0004 9.9999ZM10.0004 11.9999C10.2631 11.9998 10.5232 11.948 10.7659 11.8474C11.0086 11.7468 11.2291 11.5994 11.4148 11.4136C11.6005 11.2278 11.7478 11.0072 11.8483 10.7645C11.9488 10.5218 12.0005 10.2616 12.0004 9.9989C12.0003 9.73619 11.9485 9.47607 11.8479 9.23338C11.7473 8.9907 11.5999 8.7702 11.4141 8.58448C11.2283 8.39877 11.0077 8.25146 10.765 8.15099C10.5223 8.05052 10.2621 7.99884 9.99939 7.9989C9.46883 7.99903 8.96004 8.20993 8.58497 8.58519C8.2099 8.96045 7.99926 9.46934 7.99939 9.9999C7.99952 10.5305 8.21042 11.0393 8.58568 11.4143C8.96094 11.7894 9.46983 12 10.0004 11.9999ZM12.4004 7.8999H13.5994C13.679 7.8999 13.7555 7.86833 13.8119 7.8121C13.8683 7.75586 13.9001 7.67956 13.9004 7.5999V6.4009C13.9004 6.32107 13.8687 6.24451 13.8122 6.18806C13.7558 6.13161 13.6792 6.0999 13.5994 6.0999H12.4004C12.3206 6.0999 12.244 6.13161 12.1876 6.18806C12.1311 6.24451 12.0994 6.32107 12.0994 6.4009V7.5999C12.1004 7.7649 12.2354 7.8999 12.4004 7.8999ZM10.0004 0.399902C7.45431 0.399902 5.01251 1.41133 3.21217 3.21168C1.41182 5.01203 0.400391 7.45382 0.400391 9.9999C0.400391 12.546 1.41182 14.9878 3.21217 16.7881C5.01251 18.5885 7.45431 19.5999 10.0004 19.5999C11.2611 19.5999 12.5094 19.3516 13.6742 18.8691C14.8389 18.3867 15.8972 17.6796 16.7886 16.7881C17.6801 15.8967 18.3872 14.8384 18.8696 13.6737C19.3521 12.5089 19.6004 11.2606 19.6004 9.9999C19.6004 8.73921 19.3521 7.49087 18.8696 6.32614C18.3872 5.16142 17.6801 4.10312 16.7886 3.21168C15.8972 2.32023 14.8389 1.6131 13.6742 1.13066C12.5094 0.648214 11.2611 0.399902 10.0004 0.399902ZM15.0004 13.8889C15.0004 14.4999 14.5004 14.9999 13.8894 14.9999H6.11139C5.50039 14.9999 5.00039 14.4999 5.00039 13.8889V6.1109C5.00039 5.4999 5.50039 4.9999 6.11139 4.9999H13.8894C14.5004 4.9999 15.0004 5.4999 15.0004 6.1109V13.8889Z" fill="#293132"/>
</svg>
