<svg width="90" height="90" viewBox="0 0 90 90" fill="none" xmlns="http://www.w3.org/2000/svg">
<rect width="90" height="90" rx="8" fill="#75E3EA"/>
<path d="M35.027 42.8414C33.9054 42.8414 33 43.717 33 44.8018C33 45.8865 33.9054 46.7621 35.027 46.7621C36.1486 46.7621 37.0541 45.8865 37.0541 44.8018C37.0541 43.717 36.1486 42.8414 35.027 42.8414ZM35.027 35C33.9054 35 33 35.8756 33 36.9604C33 38.0451 33.9054 38.9207 35.027 38.9207C36.1486 38.9207 37.0541 38.0451 37.0541 36.9604C37.0541 35.8756 36.1486 35 35.027 35ZM35.027 50.6828C33.9054 50.6828 33 51.5715 33 52.6432C33 53.7148 33.9189 54.6035 35.027 54.6035C36.1351 54.6035 37.0541 53.7148 37.0541 52.6432C37.0541 51.5715 36.1486 50.6828 35.027 50.6828ZM39.0811 53.9501H58V51.3363H39.0811V53.9501ZM39.0811 46.1087H58V43.4949H39.0811V46.1087ZM39.0811 35.6535V38.2673H58V35.6535H39.0811Z" fill="white"/>
</svg>
