<svg width="70" height="25" viewBox="0 0 70 25" fill="none" xmlns="http://www.w3.org/2000/svg">
<path d="M30.4112 20.8164L31.7385 20.9154V24.5703H21.9095V20.9292L23.2218 20.8164C23.4485 20.7981 23.6817 20.7779 23.9216 20.7586C23.9618 20.7568 23.9974 20.7522 24.0283 20.7485V12.0602C24.0283 11.974 24.0096 11.9309 23.9927 11.8979C23.974 11.8649 23.944 11.82 23.8794 11.7704C23.8438 11.7539 23.7389 11.7126 23.5281 11.665C23.2555 11.6017 23.0092 11.5622 22.7975 11.5494L21.457 11.4613V7.87891H28.9836L29.6196 8.50258V20.588C29.6196 20.6045 29.6215 20.6192 29.6215 20.6348C29.748 20.6825 29.8697 20.721 29.985 20.7504C30.103 20.7815 30.2472 20.8036 30.4112 20.8164Z" fill="#496DE2"/>
<path d="M24.2261 5.72808C23.6172 5.08423 23.2959 4.29639 23.2959 3.44893C23.2959 2.57671 23.6153 1.7742 24.2186 1.12668C24.8574 0.443393 25.6705 0.0820312 26.5735 0.0820312C27.5215 0.0820312 28.3533 0.42505 28.9809 1.07165C29.5879 1.69899 29.9092 2.47491 29.9092 3.31961C29.9092 4.20192 29.5963 5.01636 29.0034 5.67489C28.3645 6.38293 27.5243 6.75897 26.5735 6.75897C25.6752 6.75989 24.863 6.40219 24.2261 5.72808Z" fill="#496DE2"/>
<path d="M66.6305 9.67497C65.8493 8.88346 64.9622 8.28456 63.973 7.87917C62.9538 7.46186 61.8279 7.25 60.6017 7.25C59.3475 7.25 58.2028 7.46186 57.1733 7.87917C56.1204 8.30749 55.1884 8.95225 54.3856 9.80888C52.8307 11.4726 52.041 13.6114 52.041 16.1666C52.041 17.4855 52.2658 18.7044 52.707 19.7867C53.1501 20.8744 53.7618 21.8145 54.5243 22.584C55.3018 23.3673 56.2048 23.9726 57.2108 24.3817C58.2112 24.7925 59.2781 24.9989 60.3825 24.9989C61.6743 24.9989 62.8677 24.7724 63.9308 24.3266C65.0184 23.8717 65.9795 23.1728 66.7897 22.2557C67.5082 21.4495 68.0646 20.4645 68.4468 19.3309C68.814 18.2348 69.0013 17.1031 69.0013 15.9658C69.0004 13.3876 68.2032 11.2708 66.6305 9.67497ZM60.5718 21.0982C60.1306 21.0982 59.7924 21.012 59.5357 20.835C59.2163 20.613 58.9512 20.3021 58.7227 19.883C58.4604 19.4015 58.2665 18.8356 58.141 18.2C58.007 17.5149 57.9396 16.7481 57.9396 15.9236C57.9396 15.3082 57.9967 14.6588 58.11 13.9948C58.2112 13.4042 58.3836 12.8759 58.629 12.421C58.8538 11.9936 59.1273 11.6744 59.4692 11.4423C59.7568 11.2452 60.1165 11.1507 60.5718 11.1507C60.9998 11.1507 61.3324 11.2387 61.5909 11.4222C61.916 11.6505 62.1754 11.9532 62.3853 12.3503C62.6101 12.7759 62.7843 13.3216 62.9042 13.9755C63.0363 14.6873 63.1018 15.366 63.1018 15.9951C63.1018 17.7561 62.8115 19.119 62.2401 20.0453C61.6649 20.979 61.0467 21.0982 60.5718 21.0982Z" fill="#496DE2"/>
<path d="M16.7777 15.4189H20.3784L19.3874 24.5713H0V22.227L10.0267 7.87894L11.7596 5.40077H9.70727C9.17989 5.40077 8.73495 5.40902 8.38649 5.42737C8.07549 5.44204 7.79354 5.47322 7.54625 5.51816C7.48067 5.531 7.04041 5.65757 6.20205 6.61234C5.84235 7.02323 5.52761 7.44696 5.25877 7.87894C5.00866 8.28249 4.79696 8.69521 4.63023 9.11344L4.27146 10.0058H0.671631L0.904875 7.87894L1.60835 1.45605H19.8679V3.79849L17.0156 7.87894L8.10828 20.6266H10.3077C11.0721 20.6266 11.902 20.5715 12.7722 20.4661C13.4691 20.3799 13.738 20.2707 13.8073 20.2377C14.3412 19.7333 14.8518 19.1004 15.3257 18.3575C15.8231 17.5761 16.1913 16.8873 16.4198 16.3132L16.7777 15.4189Z" fill="#496DE2"/>
<path d="M48.8857 20.5022C48.7892 20.494 48.7302 20.4839 48.6983 20.4756C48.6768 20.4591 48.6562 20.439 48.6459 20.4206C48.6459 20.4206 48.6253 20.3729 48.6253 20.2454V0.648434L47.9611 0H39.628V3.52741L40.9619 3.62371C41.4434 3.65672 41.8968 3.71175 42.3089 3.78421C42.6115 3.83741 42.7651 3.90528 42.8297 3.94013C42.8419 3.9548 42.87 3.99332 42.9037 4.07403C42.9693 4.2327 43.003 4.42531 43.003 4.64176V7.52898C42.2799 7.3538 41.5371 7.26576 40.7914 7.26576C39.7638 7.26576 38.7456 7.47395 37.7639 7.88026C37.6984 7.90869 37.6319 7.93345 37.5663 7.9628C36.5303 8.42138 35.6376 9.05055 34.9107 9.83289C34.1613 10.6455 33.5702 11.6012 33.1478 12.6733C32.7272 13.7464 32.5117 14.8929 32.5117 16.0815C32.5117 17.3527 32.7094 18.5413 33.0981 19.6153C33.4925 20.6976 34.0376 21.6469 34.7224 22.431C35.4156 23.2271 36.2436 23.8545 37.1869 24.2965C38.1424 24.745 39.1494 24.9716 40.1797 24.9716C41.182 24.9716 42.1665 24.745 43.1042 24.3011C43.2475 24.2314 43.3899 24.1608 43.5267 24.0847L44.1627 24.6643L51.1656 24.2278V20.6013L49.7756 20.5564C49.5123 20.5472 49.2135 20.5288 48.8857 20.5022ZM39.2318 19.4979C38.9545 19.0742 38.7531 18.6092 38.6351 18.1158C38.5068 17.571 38.4402 16.9437 38.4402 16.2539C38.4402 15.3716 38.5311 14.5636 38.711 13.8537C38.8796 13.1879 39.1016 12.6486 39.3639 12.2597C39.6243 11.8772 39.9147 11.5893 40.2275 11.4022C40.4926 11.2417 40.7671 11.1674 41.0865 11.1674C41.3956 11.1674 41.6532 11.2086 41.8527 11.2912C42.0822 11.3856 42.2836 11.503 42.4476 11.6388C42.6012 11.7809 42.7267 11.9314 42.8279 12.0992C42.9094 12.2304 42.9646 12.3395 43.004 12.4257V19.8666C42.811 20.0409 42.5927 20.206 42.3511 20.3647C42.0841 20.538 41.7019 20.6279 41.2186 20.6279C40.7586 20.6279 40.3905 20.5389 40.0908 20.3546C39.746 20.1445 39.4688 19.8694 39.244 19.5154L39.2318 19.4979Z" fill="#496DE2"/>
</svg>
