<svg width="26" height="26" viewBox="0 0 26 26" fill="none" xmlns="http://www.w3.org/2000/svg">
<g clip-path="url(#clip0)">
<path d="M23.1111 3.61133H2.88889C2.12271 3.61133 1.38791 3.91569 0.846136 4.45746C0.304364 4.99924 0 5.73404 0 6.50022L0 19.5002C0 20.2664 0.304364 21.0012 0.846136 21.543C1.38791 22.0847 2.12271 22.3891 2.88889 22.3891H23.1111C23.8773 22.3891 24.6121 22.0847 25.1539 21.543C25.6956 21.0012 26 20.2664 26 19.5002V6.50022C26 5.73404 25.6956 4.99924 25.1539 4.45746C24.6121 3.91569 23.8773 3.61133 23.1111 3.61133Z" fill="#006C35"/>
<path d="M6.44148 10.1474C6.89792 10.1907 6.64587 9.3753 6.81125 9.22724C6.84231 9.1543 6.90009 9.15357 6.90442 9.24602V9.93791C6.90009 10.1632 7.04814 10.229 7.16298 10.2759C7.28287 10.2665 7.36231 10.2709 7.40925 10.3871L7.46559 11.5846C7.46559 11.5846 7.74292 11.664 7.75592 10.9107C7.76964 10.4687 7.66781 10.099 7.72775 10.013C7.72992 9.92852 7.83753 9.92346 7.91264 9.96463C8.03181 10.0484 8.08525 10.1524 8.27014 10.1112C8.55253 10.034 8.72153 9.89674 8.72586 9.68007C8.70925 9.47424 8.68614 9.26841 8.59731 9.06257C8.60959 9.02502 8.54314 8.92824 8.55542 8.89068C8.60598 8.97013 8.68325 8.96363 8.70059 8.89068C8.65292 8.73252 8.57853 8.58085 8.4572 8.51513C8.35753 8.42702 8.21164 8.44507 8.1582 8.62852C8.13364 8.83941 8.23475 9.09074 8.38787 9.29513C8.42037 9.3753 8.46659 9.50818 8.44636 9.62807C8.36475 9.6743 8.28242 9.65552 8.21453 9.5833C8.21453 9.5833 7.98992 9.41502 7.98992 9.37746C8.04987 8.99613 8.00364 8.9528 7.97042 8.84735C7.94731 8.70146 7.87798 8.65452 7.82164 8.55485C7.76531 8.49563 7.68948 8.49563 7.65337 8.55485C7.5537 8.72674 7.59992 9.09652 7.67214 9.26191C7.72342 9.41357 7.80287 9.50963 7.76531 9.50963C7.73425 9.59557 7.6707 9.57535 7.62448 9.47641C7.55803 9.2713 7.54503 8.96579 7.54503 8.82785C7.52481 8.65741 7.50314 8.29268 7.3912 8.20024C7.32259 8.10707 7.22075 8.15185 7.18537 8.2378C7.17814 8.4068 7.1767 8.57652 7.1962 8.73324C7.27275 9.00696 7.29731 9.24818 7.33487 9.52913C7.34498 9.90541 7.11748 9.69235 7.12759 9.50602C7.18031 9.26407 7.16659 8.88274 7.11964 8.78596C7.08281 8.68991 7.03875 8.66535 6.9492 8.68124C6.87842 8.67546 6.69498 8.87624 6.64298 9.20846C6.64298 9.20846 6.59892 9.37963 6.58014 9.53202C6.55487 9.70391 6.4422 9.82524 6.36275 9.50818C6.29414 9.2778 6.25225 8.70941 6.13742 8.8423C6.1042 9.28646 6.06448 10.0679 6.44148 10.1474Z" fill="white"/>
<path d="M7.12881 10.4717C6.75325 10.4789 6.20364 10.965 6.18848 11.2343C6.58425 11.0437 6.97353 10.8602 7.37653 10.6638C7.31153 10.5663 7.37292 10.4789 7.12881 10.4717Z" fill="white"/>
<path d="M9.1987 11.9278C9.37276 11.3479 9.17054 10.9203 9.26515 10.9225C9.4652 11.1384 9.74543 10.9514 9.80682 10.8763C9.83354 10.8387 9.89926 10.8142 9.94548 10.8633C10.1022 10.9759 10.3781 10.9225 10.4351 10.7246C10.4712 10.5258 10.4934 10.3248 10.5016 10.123C10.3738 10.1627 10.2784 10.1894 10.2698 10.2422L10.243 10.414C10.2322 10.4697 10.1217 10.4718 10.1174 10.401C10.069 10.1808 9.8682 10.1519 9.74687 10.4935C9.66526 10.5599 9.51793 10.5729 9.50204 10.474C9.52154 10.245 9.42909 10.214 9.2442 10.3216C9.18498 9.86732 9.12504 9.43326 9.06582 8.97898C9.14309 8.97682 9.21387 9.03387 9.28393 8.94576C9.20665 8.70526 9.04343 8.21415 8.95315 8.17876C8.90909 8.12532 8.87154 8.15854 8.81448 8.17226C8.7177 8.20332 8.62743 8.2871 8.65559 8.4496C8.77043 9.14654 8.84554 9.67737 8.95965 10.3743C8.97698 10.4559 8.90909 10.5635 8.82098 10.5527C8.67148 10.4516 8.63393 10.2465 8.37826 10.2552C8.19265 10.2573 7.98104 10.4581 7.95504 10.6524C7.92398 10.8062 7.91315 10.9738 7.95504 11.1088C8.08504 11.2648 8.24176 11.2497 8.37826 11.2143C8.4902 11.168 8.58337 11.0554 8.62237 11.0821C8.64909 11.1146 8.62887 11.4851 8.0937 11.7697C7.76943 11.9148 7.51159 11.948 7.37293 11.6837C7.28698 11.5183 7.37943 10.89 7.16782 11.0359C6.54165 12.65 8.63393 12.8739 8.86793 11.1023C8.89032 11.0294 8.97843 10.9564 8.99359 11.0756C8.9452 12.6804 7.37509 12.7909 7.10859 12.286C7.04215 12.1669 7.02265 11.9025 7.01615 11.7437C6.97643 11.428 6.81104 11.5494 6.78504 11.8621C6.75832 12.0362 6.76554 12.0853 6.76554 12.2521C6.84859 13.5196 8.87082 12.975 9.1987 11.9278ZM8.4187 10.8315C8.4057 10.856 8.34865 10.8459 8.30676 10.8459C8.25909 10.8438 8.2367 10.8358 8.20782 10.7975C8.19482 10.7542 8.23526 10.713 8.25332 10.6805C8.2757 10.6423 8.39632 10.6025 8.43893 10.7094C8.44681 10.7297 8.4491 10.7518 8.44554 10.7732C8.44198 10.7947 8.43271 10.8148 8.4187 10.8315Z" fill="white"/>
<path d="M9.82378 9.39476C9.94945 9.34854 10.5453 8.66748 10.5453 8.66748C10.5142 8.64076 10.4868 8.62126 10.4557 8.59454C10.4225 8.56565 10.4261 8.53676 10.4557 8.50859C10.6031 8.42265 10.5561 8.23415 10.4788 8.1482C10.4289 8.12368 10.3738 8.11118 10.3182 8.11168C10.2625 8.11218 10.2077 8.12568 10.1582 8.15109C10.0549 8.25004 10.0303 8.40893 10.1119 8.50859C10.1914 8.54615 10.2708 8.62632 10.2181 8.67037C9.97472 8.93037 9.30739 9.37887 9.38467 9.39476C9.40128 9.41643 9.81078 9.4157 9.82378 9.39476ZM10.2651 8.32515C10.3033 8.31576 10.3524 8.3497 10.3756 8.40026C10.3987 8.45082 10.3864 8.4992 10.3488 8.50859H10.3474C10.3098 8.51798 10.2607 8.48404 10.2376 8.43348C10.2152 8.3822 10.2275 8.33454 10.2651 8.32515ZM6.40045 12.4635C6.30222 12.6635 6.26106 12.5263 6.25239 12.4144C6.2411 12.2264 6.25055 12.0377 6.28056 11.8518C6.30511 11.6929 6.28056 11.7413 6.23 11.8055C6.00684 12.1609 5.98734 12.6924 6.11084 12.8506C6.17584 12.9257 6.28345 12.9589 6.36361 12.9344C6.50372 12.8737 6.56511 12.5891 6.53189 12.4859C6.48422 12.4129 6.44739 12.4014 6.40045 12.4635ZM13.7534 8.70215C14.0105 9.04737 14.2546 9.39909 14.4937 9.75732C14.5406 10.0679 14.5746 10.3712 14.5948 10.6724C14.6345 11.253 14.6461 11.8814 14.6099 12.4931C14.7183 12.4974 14.8938 12.3169 14.9544 12.0533C14.9942 11.6885 14.94 11.0393 14.9364 10.824C14.9316 10.6891 14.9251 10.5543 14.9169 10.4196C15.2014 10.8847 15.4788 11.3715 15.7496 11.9124C15.8486 11.8662 15.8269 11.313 15.7691 11.235C15.5524 10.7706 15.2542 10.3113 15.1588 10.135C15.1234 10.07 15.0028 9.88515 14.8591 9.67354C14.8468 9.50465 14.8265 9.33642 14.7984 9.16943C14.7537 8.86032 14.9263 9.20337 14.9024 9.02354C14.8468 8.71443 14.6749 8.5057 14.4742 8.22259C14.4092 8.13087 14.4113 8.11209 14.3109 8.24498C14.2755 8.32459 14.2591 8.41142 14.2633 8.49848C14.2319 8.45239 14.1984 8.40781 14.1629 8.36487C14.0539 8.27083 13.9444 8.17742 13.8343 8.08465C13.7613 8.03265 13.5837 7.93876 13.5519 8.09476C13.5371 8.20411 13.5425 8.31524 13.5678 8.42265C13.5866 8.49993 13.6985 8.62848 13.7534 8.70215ZM14.2878 8.68482C14.3016 8.74476 14.316 8.8047 14.3254 8.86609L14.3362 8.92459C14.3059 8.88226 14.2744 8.84083 14.2416 8.80037C14.1232 8.66026 14.2214 8.69059 14.2878 8.68482Z" fill="white"/>
<path d="M15.83 12.0562C15.5787 12.3184 15.2162 12.6412 14.8218 12.7907C14.7792 12.8384 14.9273 13.0428 15.1179 13.0428C15.4379 13.0052 15.7195 12.8254 15.9803 12.3523C16.0503 12.2425 16.1731 12.0064 16.176 11.8229C16.1998 10.7497 16.1225 9.9141 15.9615 9.13843C15.9507 9.07619 15.9537 9.01235 15.9702 8.95138C15.9904 8.92682 16.0611 8.95138 16.0987 8.89071C16.1529 8.83438 15.9535 8.37215 15.8394 8.19449C15.799 8.11504 15.7853 8.0616 15.7181 8.20388C15.6473 8.31943 15.6004 8.52093 15.6061 8.70871C15.7585 9.76532 15.8055 10.6905 15.9052 11.7471C15.9131 11.8489 15.8979 11.9977 15.83 12.0562ZM20.0406 9.37676C20.0298 9.30165 19.9965 9.12688 20.0095 9.10449C20.0298 9.05104 20.1345 9.11026 20.172 9.04888C20.2269 8.99326 19.9019 8.57582 19.7885 8.39815C19.7474 8.31871 19.7337 8.26526 19.6665 8.40754C19.5957 8.5231 19.5712 8.73038 19.5993 8.91238C19.769 10.06 19.8954 10.9223 19.9214 11.9399C19.9063 12.0367 19.9034 12.0887 19.8579 12.21C19.7575 12.3386 19.647 12.4989 19.5423 12.5769C19.4383 12.6542 19.2165 12.7286 19.1436 12.7857C18.9146 12.9193 18.9139 13.0717 19.1003 13.0767C19.4195 13.0392 19.7979 13.0132 20.0587 12.6188C20.1287 12.509 20.2118 12.2108 20.2154 12.0273C20.2392 10.9541 20.2017 10.1524 20.0406 9.37676ZM17.6204 10.2702C17.6233 10.1228 17.637 9.92782 17.645 9.80576C17.6486 9.76026 17.6594 9.70899 17.7028 9.69743C17.7468 9.68588 17.8248 9.74221 17.8255 9.69454C17.8169 9.60138 17.7981 9.46271 17.7454 9.39699C17.6731 9.2901 17.4818 9.3161 17.4478 9.48365C17.4485 9.54576 17.4767 9.57899 17.4716 9.63532C17.463 9.6671 17.4298 9.68876 17.351 9.65121C17.364 9.63965 17.2998 9.55082 17.2998 9.55082C17.2384 9.51326 17.156 9.55299 17.1033 9.58693C17.0842 9.62335 17.0729 9.66329 17.0699 9.7043C17.0669 9.7453 17.0724 9.78647 17.086 9.82526C17.1727 9.98921 17.4753 10.2673 17.6204 10.2702Z" fill="white"/>
<path d="M17.5193 9.0135C17.7309 9.27278 17.9468 9.53567 18.1642 9.80289C18.2112 10.3994 18.2235 10.8877 18.2697 11.4842C18.2632 11.737 18.1852 11.9573 18.1108 11.9891C18.1108 11.9891 17.9988 12.0541 17.9237 11.9826C17.8688 11.9602 17.65 11.6178 17.65 11.6178C17.5381 11.5153 17.4644 11.5442 17.385 11.6178C17.1654 11.8294 17.0665 12.2267 16.9177 12.4997C16.8787 12.5611 16.7703 12.6131 16.6497 12.4953C16.3442 12.0772 16.5233 11.4828 16.4858 11.6359C16.2135 11.9428 16.3334 12.4506 16.3948 12.5603C16.4843 12.7394 16.5573 12.855 16.7321 12.9438C16.891 13.0608 17.0152 12.9872 17.0831 12.9056C17.2434 12.7387 17.2456 12.3162 17.3207 12.231C17.3727 12.0772 17.5063 12.1032 17.5706 12.1718C17.6294 12.2548 17.7075 12.3225 17.7981 12.3689C17.9476 12.5011 18.126 12.5249 18.3015 12.4043C18.4213 12.3372 18.5001 12.2498 18.5701 12.0772C18.6481 11.8692 18.6055 10.9129 18.5896 10.3395C18.7016 10.4839 18.8106 10.6349 18.9211 10.7858C18.9695 11.2647 18.997 11.7413 18.9811 12.2281C18.9695 12.3256 19.3205 11.9392 19.3176 11.7558C19.3162 11.6077 19.3176 11.4734 19.3176 11.347C19.4866 11.6012 19.6513 11.8634 19.8058 12.1407C19.9026 12.0902 19.8708 11.5449 19.8095 11.4698C19.6311 11.1708 19.3935 10.8595 19.2295 10.6371C19.2187 10.6089 19.2129 10.5771 19.1999 10.5504C19.1342 10.398 19.1753 10.2752 19.1443 10.1134C19.114 9.95094 19.1219 9.70828 19.075 9.51544C19.062 9.44033 19.023 9.19911 19.0345 9.17672C19.0533 9.12256 19.1255 9.17817 19.1609 9.11606C19.2136 9.05828 18.9782 8.448 18.8583 8.27322C18.815 8.19522 18.737 8.22194 18.6402 8.34906C18.5513 8.43283 18.5846 8.6235 18.6185 8.80478C18.703 9.24389 18.7738 9.66494 18.8345 10.0817C18.7046 9.909 18.5734 9.73735 18.4408 9.56672L18.4351 9.53494C18.4351 9.527 18.4156 9.1565 18.3982 9.06839C18.3953 9.033 18.3867 9.02217 18.4242 9.0265C18.464 9.05972 18.469 9.06189 18.4943 9.07344C18.5347 9.08067 18.5701 9.01206 18.5463 8.94922L18.1729 8.26167C18.1433 8.23206 18.1043 8.20028 18.0573 8.26961C18.0282 8.29507 18.0048 8.32649 17.9889 8.36175C17.9729 8.39702 17.9648 8.4353 17.9649 8.474C17.9765 8.6365 18.0046 8.80261 18.0155 8.96583L18.0313 9.05394C18.0147 9.03444 17.9945 9.00989 17.9858 9.00122C17.6688 8.66756 18.1317 8.94706 17.9252 8.68922C17.7504 8.49711 17.6998 8.43717 17.5496 8.32161C17.4745 8.27322 17.429 8.18078 17.4045 8.33822C17.3921 8.47628 17.3885 8.61498 17.3936 8.7535C17.3936 8.81994 17.4608 8.94128 17.5193 9.0135ZM11.0908 9.79278C11.2728 9.86789 11.3891 9.52122 11.4642 9.14133C11.5147 9.03444 11.5537 9.02289 11.5797 9.07778C11.5732 9.58333 11.6158 9.69528 11.7458 9.84911C12.0355 10.073 12.2752 9.87728 12.2947 9.8585L12.5201 9.63317C12.5699 9.58044 12.6371 9.57683 12.7078 9.62378C12.7772 9.68589 12.7678 9.79422 12.9151 9.86933C13.0393 9.91917 13.3051 9.88089 13.3665 9.774C13.4496 9.63244 13.4698 9.58333 13.5073 9.52989C13.5666 9.45117 13.6677 9.48656 13.6677 9.51111C13.6583 9.55517 13.5991 9.59922 13.6395 9.67794C13.7103 9.73067 13.7262 9.69672 13.7681 9.68517C13.9154 9.61439 14.0252 9.29517 14.0252 9.29517C14.0317 9.176 13.9652 9.18611 13.9219 9.21067C13.8656 9.24461 13.862 9.25617 13.8056 9.29083C13.7334 9.30167 13.594 9.34933 13.5254 9.24244C13.4546 9.11389 13.4532 8.93478 13.3997 8.8055C13.3997 8.79611 13.3058 8.60111 13.3932 8.58883C13.4373 8.59678 13.5305 8.62133 13.5456 8.54333C13.5911 8.46678 13.4467 8.24867 13.3485 8.13817C13.2625 8.04428 13.1433 8.03272 13.0285 8.12878C12.9476 8.20317 12.9592 8.2855 12.9433 8.36422C12.9302 8.41978 12.9302 8.47762 12.9434 8.53317C12.9565 8.58871 12.9825 8.64041 13.0191 8.68417C13.0993 8.84233 13.2459 9.04672 13.1975 9.33272C13.1975 9.33272 13.1123 9.4685 12.9628 9.45117C12.9007 9.43744 12.7996 9.41072 12.7461 9.0135C12.7057 8.71233 12.7562 8.29128 12.6284 8.09411C12.5822 7.97494 12.549 7.86011 12.4363 8.06378C12.406 8.14394 12.276 8.26528 12.3706 8.51589C12.4478 8.67406 12.4789 8.93189 12.4442 9.21933C12.3908 9.30094 12.3792 9.32839 12.3092 9.41C12.211 9.51544 12.1048 9.48872 12.0232 9.449C11.9466 9.39772 11.8874 9.371 11.8527 9.20778C11.8592 8.94778 11.8737 8.52167 11.826 8.43139C11.756 8.29128 11.6404 8.34183 11.5906 8.38444C11.353 8.60183 11.236 8.968 11.1645 9.25906C11.0987 9.47139 11.0287 9.41072 10.9796 9.32478C10.8597 9.21211 10.8517 8.33317 10.7066 8.47833C10.4733 9.13844 10.838 9.86356 11.0908 9.79278Z" fill="white"/>
<path d="M14.5437 11.2117L14.4744 11.172L13.1159 11.1655C13.0458 11.1388 13.0668 11.1157 13.1159 11.0969C13.4402 11.0528 14.0172 10.9589 14.0555 10.405C14.049 10.1168 13.9313 9.9276 13.5774 9.8756C13.3181 9.89582 13.1325 10.1479 13.1621 10.4245C13.1498 10.4996 13.1867 10.6455 13.1108 10.6621C12.6118 10.7076 12.0679 11.0196 12.0499 11.2435C12.0196 11.2644 11.9517 11.2038 11.9603 11.1084C11.9363 10.7006 11.8189 10.3038 11.6173 9.94854C11.4598 9.7911 11.5089 9.8431 11.4035 9.91749C11.3356 9.99549 11.3233 10.0489 11.3269 10.2042C11.3269 10.21 11.4541 10.5646 11.5617 10.813C11.6332 11.068 11.7003 11.359 11.6519 11.6342C11.4844 11.9982 11.1471 12.3247 10.8221 12.5016C10.6546 12.5558 10.5108 12.5363 10.4754 12.4987C10.3722 12.4294 10.3772 12.3015 10.3852 12.2994C10.6589 12.108 10.9723 11.9542 11.2179 11.4392C11.2901 11.2428 11.3118 11.1236 11.2403 10.8195C11.2204 10.7124 11.1711 10.6129 11.098 10.5321C11.1421 10.5032 11.2684 10.5993 11.2879 10.5422C11.2513 10.3758 11.1685 10.2231 11.0489 10.1017C10.9514 10.0128 10.8452 10.0027 10.7557 10.0843C10.6546 10.1407 10.6329 10.3414 10.6813 10.5177C10.7347 10.6505 10.8799 10.6729 10.9839 10.9394C10.9839 10.9452 11.0214 11.1388 10.968 11.2146C10.9254 11.3475 10.3729 11.7815 10.3426 11.801C10.3274 11.8198 10.3339 11.7917 10.3317 11.7194C10.3281 11.6313 10.3671 11.4233 10.3563 11.4219C10.1764 11.5382 10.1165 11.8942 10.084 11.9997C9.629 12.3138 9.11405 12.5478 8.8165 12.867C8.66122 13.109 9.88394 12.589 10.0262 12.5262C10.058 12.5493 10.0544 12.6583 10.1396 12.7558C10.2667 12.9277 10.5354 13.0339 10.799 12.9682C11.2396 12.8085 11.4945 12.5081 11.7531 12.1752C11.7899 12.121 11.8477 12.0798 11.9011 12.121C12.0788 12.5189 12.5923 12.8006 13.2546 12.8302C13.4084 12.6432 13.334 12.5529 13.2719 12.5139C13.2719 12.5081 12.9447 12.3839 12.8949 12.2597C12.8646 12.147 12.9382 12.048 13.0856 11.9729C13.5109 11.9217 13.9291 11.8646 14.3343 11.7346C14.3386 11.5988 14.4173 11.3952 14.4715 11.307C14.5235 11.2175 14.5517 11.2442 14.5437 11.2117ZM13.4264 10.3653C13.4467 10.3313 13.5138 10.3328 13.5767 10.3696C13.6395 10.4057 13.6749 10.4635 13.6539 10.4974C13.6337 10.5321 13.5658 10.5299 13.503 10.4931C13.4402 10.457 13.4062 10.3999 13.4264 10.3653ZM12.8797 11.7375C12.7338 11.7873 12.5937 11.8263 12.5937 12.0372C12.6479 12.3304 12.5193 12.23 12.4435 12.1896C12.3539 12.1253 12.1019 11.97 12.0658 11.6349C12.06 11.5548 12.1228 11.4876 12.2232 11.4876C12.3742 11.5288 12.5973 11.5317 12.7909 11.5519C12.9491 11.562 13.0278 11.6862 12.8797 11.7375ZM7.848 8.48388C8.004 8.55899 8.29866 8.52721 8.28566 8.27443C8.28566 8.25204 8.27989 8.17693 8.27772 8.15671C8.24594 8.08232 8.15928 8.10038 8.13905 8.17765C8.13255 8.20293 8.14989 8.24338 8.1275 8.25638C8.1145 8.26938 8.06466 8.26143 8.06683 8.1921C8.06683 8.16971 8.05022 8.14588 8.04083 8.13215C8.03072 8.12565 8.02494 8.12349 8.00689 8.12349C7.98522 8.12421 7.98522 8.12999 7.97366 8.14877C7.96861 8.16682 7.96139 8.1856 7.96139 8.20654C7.9585 8.2311 7.94911 8.23977 7.93105 8.2441C7.91083 8.2441 7.91516 8.24626 7.89928 8.23543C7.88916 8.2246 7.87689 8.22027 7.87689 8.20221C7.87683 8.1811 7.87341 8.16014 7.86678 8.1401C7.85811 8.12854 7.84439 8.12349 7.8285 8.11915C7.74327 8.11915 7.7375 8.21665 7.74255 8.25421C7.73461 8.26071 7.73172 8.43549 7.848 8.48388Z" fill="white"/>
<path d="M12.6481 10.1304C12.6481 10.108 12.6315 10.0849 12.6221 10.0704C12.612 10.0639 12.6062 10.0618 12.5882 10.0618C12.5665 10.0625 12.5672 10.0683 12.555 10.087C12.5499 10.1058 12.5427 10.1239 12.5427 10.1448C12.5405 10.1701 12.5304 10.1788 12.5124 10.1824C12.4921 10.1824 12.4965 10.1845 12.4799 10.1744C12.4697 10.1636 12.4575 10.1593 12.4575 10.1412C12.4575 10.1201 12.4541 10.0991 12.4474 10.0791C12.4387 10.0675 12.425 10.0625 12.4091 10.0589C12.3239 10.0589 12.3181 10.1564 12.3224 10.1932C12.3159 10.2004 12.3123 10.3745 12.4286 10.4236C12.5853 10.498 12.9572 10.4547 12.8662 10.2142C12.8647 10.1746 12.8621 10.1351 12.8583 10.0957C12.8265 10.0213 12.7391 10.0401 12.7196 10.1167C12.7139 10.1419 12.7312 10.1824 12.7081 10.1954C12.6965 10.2084 12.646 10.2004 12.6481 10.1304ZM15.1015 9.61976C15.2575 9.69487 15.5515 9.6631 15.5385 9.41104C15.5369 9.37149 15.5343 9.33199 15.5305 9.2926C15.4987 9.21821 15.4121 9.23698 15.3926 9.31354C15.3861 9.33882 15.4034 9.37926 15.3803 9.39226C15.3673 9.40526 15.3175 9.39804 15.3196 9.32798C15.3196 9.3056 15.303 9.28176 15.2936 9.26804C15.2835 9.26154 15.2777 9.25937 15.259 9.25937C15.2373 9.26082 15.238 9.26587 15.2257 9.28465C15.2207 9.30343 15.2135 9.32148 15.2135 9.34243C15.2106 9.36771 15.2012 9.37637 15.1831 9.37998C15.1629 9.37998 15.1672 9.38215 15.1506 9.37204C15.1405 9.36121 15.129 9.35687 15.129 9.33882C15.1289 9.31747 15.1255 9.29627 15.1189 9.27598C15.1095 9.26443 15.0965 9.25937 15.0799 9.25576C14.9946 9.25576 14.9889 9.35326 14.9939 9.3901C14.9889 9.39732 14.9852 9.57137 15.1015 9.61976ZM15.207 8.64332C15.2626 8.79932 15.1644 8.9481 15.2229 8.96976C15.2756 8.99432 15.3507 8.80871 15.3781 8.63754C15.4106 8.49887 15.3117 8.21504 15.1716 8.15654C15.0864 8.13632 14.965 8.18687 15.004 8.30098C14.9845 8.35587 15.1759 8.54221 15.207 8.64332ZM16.6478 12.3007C16.7569 12.3014 16.8825 12.0515 16.936 11.8038C16.9656 11.4629 16.9157 11.2556 16.9071 11.0548C16.8977 10.8548 16.681 9.32726 16.6362 9.1756C16.5835 8.88887 16.8479 9.13732 16.819 8.97048C16.7272 8.76032 16.4997 8.45482 16.4275 8.2721C16.3842 8.1941 16.403 8.12476 16.3062 8.25187C16.2174 8.54437 16.1863 8.78271 16.2202 8.96471C16.4499 10.1636 16.6854 11.1603 16.6478 12.3007ZM19.3605 9.16621C19.3857 9.24421 19.3222 9.49626 19.3749 9.51937C19.4233 9.54537 19.4912 9.34532 19.5165 9.15971C19.5302 9.05787 19.4558 8.70254 19.328 8.63898C19.25 8.61732 19.1395 8.67148 19.1756 8.79571C19.1575 8.85565 19.3323 9.05643 19.3605 9.16621ZM9.88563 11.8067C9.93258 11.8262 9.99686 11.6788 10.0214 11.5423C10.0351 11.4672 9.96291 11.2065 9.84086 11.1595C9.76575 11.1437 9.66319 11.1639 9.69497 11.2751C9.69136 11.335 9.86108 11.4073 9.87119 11.5467C9.89575 11.6044 9.83508 11.79 9.88563 11.8067ZM6.59519 8.4736C6.61902 8.53354 6.57136 8.72493 6.62119 8.74298C6.66669 8.76321 6.73097 8.6101 6.7548 8.46926C6.76852 8.39126 6.75769 8.12693 6.57713 8.07276C6.50275 8.05615 6.39947 8.09732 6.43341 8.19193C6.41608 8.23671 6.56847 8.38982 6.59519 8.4736ZM10.1355 9.32076C9.99758 9.39587 9.94341 9.61832 10.0301 9.7476C10.1102 9.86243 10.2374 9.81982 10.2547 9.81982C10.3905 9.83643 10.4706 9.5656 10.4706 9.5656C10.4706 9.5656 10.475 9.48976 10.3139 9.63348C10.246 9.64648 10.2374 9.62121 10.2207 9.58221C10.2043 9.51152 10.2117 9.43739 10.2417 9.37132C10.2648 9.30415 10.2128 9.27454 10.1355 9.32076ZM11.177 8.48804C11.1992 8.47428 11.2183 8.45598 11.233 8.43432C11.2477 8.41266 11.2576 8.38814 11.2622 8.36237C11.2831 8.25693 11.1502 8.41221 11.1336 8.29448C11.104 8.18543 11.1892 8.14065 11.2701 8.03521C11.273 7.96226 11.2716 7.91098 11.1726 7.97021C11.1033 8.01715 10.9646 8.16015 10.9603 8.32482C10.956 8.41798 10.9386 8.41726 11 8.47648C11.0441 8.54076 11.0881 8.53426 11.177 8.48804ZM12.1151 8.54437C12.2047 8.30171 12.2047 8.19915 12.2112 8.09587C12.1837 7.93915 12.0776 7.94421 12.0075 8.11826C11.9772 8.18398 11.9418 8.52993 11.9476 8.52993C11.9237 8.63321 12.0552 8.67726 12.1151 8.54437ZM18.0157 10.2654C18.0157 10.2654 17.2913 10.7804 17.274 10.7984C17.2017 10.862 17.2379 11.0873 17.274 11.0613C17.3252 11.0815 18.054 10.5868 18.0395 10.529C18.0735 10.5305 18.0901 10.2394 18.0157 10.2654ZM17.9269 11.6622C17.9752 11.6882 18.1031 11.53 18.098 11.3329C18.1125 11.231 18.0612 10.8577 17.9341 10.7941C17.8561 10.7724 17.7521 10.8389 17.7882 10.9624C17.7701 11.0216 17.8777 11.2289 17.9059 11.3387C17.9312 11.4174 17.8741 11.6391 17.9269 11.6622ZM13.8246 12.7427C13.8246 12.7492 13.886 12.8019 13.9582 12.76C14.1099 12.7015 14.2052 12.6452 14.4176 12.5982C14.4732 12.5975 14.4696 12.448 14.3815 12.4429C14.2666 12.4487 14.1597 12.4545 14.0449 12.5455C13.9741 12.5614 13.9626 12.5188 13.9467 12.4798C13.9294 12.3837 13.9864 12.3173 13.9741 12.2458C13.9785 12.2501 13.9084 12.1858 13.8369 12.2219C13.8333 12.2219 13.6773 12.3274 13.6275 12.401C13.5964 12.4249 13.6 12.4451 13.6094 12.4848C13.6332 12.5397 13.6759 12.5231 13.7235 12.4971C13.7871 12.4884 13.8174 12.5303 13.8124 12.6062C13.782 12.7022 13.8246 12.7376 13.8246 12.7427ZM18.5559 12.8625C18.5321 12.9037 18.5162 12.9658 18.5899 12.9853C18.7256 13.0236 19.0384 12.8199 19.0384 12.8163C19.0889 12.778 19.0723 12.7065 19.068 12.7065C19.0384 12.6726 18.9719 12.6921 18.9271 12.687C18.9062 12.687 18.8354 12.6762 18.8694 12.6141C18.8932 12.5806 18.9122 12.5439 18.9257 12.505C18.9466 12.4581 18.9286 12.427 18.852 12.4018C18.7747 12.3873 18.7437 12.3945 18.6577 12.4018C18.6115 12.4119 18.5956 12.4321 18.587 12.4884C18.5906 12.5737 18.6419 12.5693 18.6953 12.6033C18.7264 12.643 18.7466 12.6791 18.6931 12.7434C18.6426 12.7903 18.6072 12.8163 18.5559 12.8625ZM18.4172 16.6109H17.3339V16.2498C17.3339 16.154 17.2959 16.0621 17.2281 15.9944C17.1604 15.9267 17.0686 15.8886 16.9728 15.8886C16.877 15.8886 16.7852 15.9267 16.7175 15.9944C16.6497 16.0621 16.6117 16.154 16.6117 16.2498V16.6109H7.94502C7.94502 16.6109 7.94502 17.3331 10.1117 17.3331H16.6117V17.6942C16.6117 17.79 16.6497 17.8818 16.7175 17.9495C16.7852 18.0173 16.877 18.0553 16.9728 18.0553C17.0686 18.0553 17.1604 18.0173 17.2281 17.9495C17.2959 17.8818 17.3339 17.79 17.3339 17.6942V17.3331H18.0561V17.6942C18.0561 17.79 18.0942 17.8818 18.1619 17.9495C18.2296 18.0173 18.3215 18.0553 18.4172 18.0553C18.513 18.0553 18.6049 18.0173 18.6726 17.9495C18.7403 17.8818 18.7784 17.79 18.7784 17.6942V16.972C18.7784 16.8762 18.7403 16.7844 18.6726 16.7166C18.6049 16.6489 18.513 16.6109 18.4172 16.6109Z" fill="white"/>
</g>
<defs>
<clipPath id="clip0">
<rect width="26" height="26" fill="white"/>
</clipPath>
</defs>
</svg>
