<svg width="20" height="16" viewBox="0 0 20 16" fill="none" xmlns="http://www.w3.org/2000/svg">
<path fill-rule="evenodd" clip-rule="evenodd" d="M1 0H19C19.2652 0 19.5196 0.101892 19.7071 0.28326C19.8946 0.464628 20 0.710616 20 0.96711V14.5066C20 14.7631 19.8946 15.0091 19.7071 15.1905C19.5196 15.3719 19.2652 15.4738 19 15.4738H1C0.734784 15.4738 0.48043 15.3719 0.292893 15.1905C0.105357 15.0091 0 14.7631 0 14.5066V0.96711C0 0.710616 0.105357 0.464628 0.292893 0.28326C0.48043 0.101892 0.734784 0 1 0ZM15.8787 11.488C16.4413 10.9439 17.2044 10.6382 18 10.6382V4.83555C17.2044 4.83555 16.4413 4.52987 15.8787 3.98577C15.3161 3.44166 15 2.7037 15 1.93422H5C5 2.7037 4.68393 3.44166 4.12132 3.98577C3.55871 4.52987 2.79565 4.83555 2 4.83555V10.6382C2.79565 10.6382 3.55871 10.9439 4.12132 11.488C4.68393 12.0321 5 12.7701 5 13.5395H15C15 12.7701 15.3161 12.0321 15.8787 11.488ZM6 7.73694C6 5.60351 7.794 3.86853 10 3.86853C12.206 3.86853 14 5.60351 14 7.73694C14 9.87037 12.206 11.6053 10 11.6053C7.794 11.6053 6 9.87037 6 7.73694ZM8 7.73694C8 8.80365 8.897 9.67114 10 9.67114C11.103 9.67114 12 8.80365 12 7.73694C12 6.67022 11.103 5.80273 10 5.80273C8.897 5.80273 8 6.67022 8 7.73694Z" fill="#496EE3"/>
</svg>
