<svg width="20" height="20" viewBox="0 0 20 20" fill="none" xmlns="http://www.w3.org/2000/svg">
<circle cx="10" cy="10" r="10" fill="#293132"/>
<path d="M12.7708 10.6091H14.2853L13.8684 14.2857H5.71387V13.344L9.93122 7.58016L10.6601 6.58465H9.79687C9.57505 6.58465 9.3879 6.58796 9.24133 6.59533C9.11052 6.60123 8.99193 6.61375 8.88792 6.63181C8.86034 6.63696 8.67516 6.68781 8.32253 7.07135C8.17123 7.23641 8.03885 7.40663 7.92577 7.58016C7.82057 7.74228 7.73153 7.90807 7.6614 8.07608L7.5105 8.43457H5.99636L6.09447 7.58016L6.39036 5H14.0706V5.94099L12.8708 7.58016L9.12431 12.7011H10.0494C10.3709 12.7011 10.72 12.679 11.086 12.6366C11.3792 12.602 11.4922 12.5581 11.5214 12.5449C11.746 12.3422 11.9607 12.088 12.1601 11.7896C12.3693 11.4756 12.5241 11.1989 12.6203 10.9683L12.7708 10.6091Z" fill="#F2F5FF"/>
</svg>
